ply
format ascii 1.0
element vertex 42
property float32 x
property float32 y
property float32 z
element face 80
property list uint8 int32 vertex_indices
end_header
1 0 -1
1 0 1
0.951057 -0.309017 -1
0.951057 -0.309017 1
0.809017 -0.587785 -1
0.809017 -0.587785 1
0.587785 -0.809017 -1
0.587785 -0.809017 1
0.309017 -0.951057 -1
0.309017 -0.951057 1
6.12323e-17 -1 -1
6.12323e-17 -1 1
-0.309017 -0.951057 -1
-0.309017 -0.951057 1
-0.587785 -0.809017 -1
-0.587785 -0.809017 1
-0.809017 -0.587785 -1
-0.809017 -0.587785 1
-0.951057 -0.309017 -1
-0.951057 -0.309017 1
-1 -1.22465e-16 -1
-1 -1.22465e-16 1
-0.951057 0.309017 -1
-0.951057 0.309017 1
-0.809017 0.587785 -1
-0.809017 0.587785 1
-0.587785 0.809017 -1
-0.587785 0.809017 1
-0.309017 0.951057 -1
-0.309017 0.951057 1
-1.83697e-16 1 -1
-1.83697e-16 1 1
0.309017 0.951057 -1
0.309017 0.951057 1
0.587785 0.809017 -1
0.587785 0.809017 1
0.809017 0.587785 -1
0.809017 0.587785 1
0.951057 0.309017 -1
0.951057 0.309017 1
0 0 -1
0 0 1
3 2 3 1
3 1 0 2
3 4 5 3
3 3 2 4
3 6 7 5
3 5 4 6
3 8 9 7
3 7 6 8
3 10 11 9
3 9 8 10
3 12 13 11
3 11 10 12
3 14 15 13
3 13 12 14
3 16 17 15
3 15 14 16
3 18 19 17
3 17 16 18
3 20 21 19
3 19 18 20
3 22 23 21
3 21 20 22
3 24 25 23
3 23 22 24
3 26 27 25
3 25 24 26
3 28 29 27
3 27 26 28
3 30 31 29
3 29 28 30
3 32 33 31
3 31 30 32
3 34 35 33
3 33 32 34
3 36 37 35
3 35 34 36
3 38 39 37
3 37 36 38
3 0 1 39
3 39 38 0
3 0 40 2
3 2 40 4
3 4 40 6
3 6 40 8
3 8 40 10
3 10 40 12
3 12 40 14
3 14 40 16
3 16 40 18
3 18 40 20
3 20 40 22
3 22 40 24
3 24 40 26
3 26 40 28
3 28 40 30
3 30 40 32
3 32 40 34
3 34 40 36
3 36 40 38
3 38 40 0
3 1 41 3
3 3 41 5
3 5 41 7
3 7 41 9
3 9 41 11
3 11 41 13
3 13 41 15
3 15 41 17
3 17 41 19
3 19 41 21
3 21 41 23
3 23 41 25
3 25 41 27
3 27 41 29
3 29 41 31
3 31 41 33
3 33 41 35
3 35 41 37
3 37 41 39
3 39 41 1
