ply
format ascii 1.0
element vertex 202
property float32 x
property float32 y
property float32 z
element face 400
property list uint8 int32 vertex_indices
end_header
0.6 -3 0
0.8 -2.7 0
1.2 -2.4 0
1.4 -2 0
1.5 -1.5 0
1.4 -1 0
0.6 1 0
0.4 1.5 0
0.35 2 0
0.8 2.6 0
0.570634 -3 -0.18541
0.760845 -2.7 -0.247214
1.14127 -2.4 -0.37082
1.33148 -2 -0.432624
1.42658 -1.5 -0.463526
1.33148 -1 -0.432624
0.570634 1 -0.18541
0.380423 1.5 -0.123607
0.33287 2 -0.108156
0.760845 2.6 -0.247214
0.48541 -3 -0.352671
0.647214 -2.7 -0.470228
0.97082 -2.4 -0.705342
1.13262 -2 -0.822899
1.21353 -1.5 -0.881678
1.13262 -1 -0.822899
0.48541 1 -0.352671
0.323607 1.5 -0.235114
0.283156 2 -0.205725
0.647214 2.6 -0.470228
0.352671 -3 -0.48541
0.470228 -2.7 -0.647214
0.705342 -2.4 -0.97082
0.822899 -2 -1.13262
0.881678 -1.5 -1.21353
0.822899 -1 -1.13262
0.352671 1 -0.48541
0.235114 1.5 -0.323607
0.205725 2 -0.283156
0.470228 2.6 -0.647214
0.18541 -3 -0.570634
0.247214 -2.7 -0.760845
0.37082 -2.4 -1.14127
0.432624 -2 -1.33148
0.463526 -1.5 -1.42658
0.432624 -1 -1.33148
0.18541 1 -0.570634
0.123607 1.5 -0.380423
0.108156 2 -0.33287
0.247214 2.6 -0.760845
3.67394e-17 -3 -0.6
4.89859e-17 -2.7 -0.8
7.34788e-17 -2.4 -1.2
8.57253e-17 -2 -1.4
9.18485e-17 -1.5 -1.5
8.57253e-17 -1 -1.4
3.67394e-17 1 -0.6
2.44929e-17 1.5 -0.4
2.14313e-17 2 -0.35
4.89859e-17 2.6 -0.8
-0.18541 -3 -0.570634
-0.247214 -2.7 -0.760845
-0.37082 -2.4 -1.14127
-0.432624 -2 -1.33148
-0.463526 -1.5 -1.42658
-0.432624 -1 -1.33148
-0.18541 1 -0.570634
-0.123607 1.5 -0.380423
-0.108156 2 -0.33287
-0.247214 2.6 -0.760845
-0.352671 -3 -0.48541
-0.470228 -2.7 -0.647214
-0.705342 -2.4 -0.97082
-0.822899 -2 -1.13262
-0.881678 -1.5 -1.21353
-0.822899 -1 -1.13262
-0.352671 1 -0.48541
-0.235114 1.5 -0.323607
-0.205725 2 -0.283156
-0.470228 2.6 -0.647214
-0.48541 -3 -0.352671
-0.647214 -2.7 -0.470228
-0.97082 -2.4 -0.705342
-1.13262 -2 -0.822899
-1.21353 -1.5 -0.881678
-1.13262 -1 -0.822899
-0.48541 1 -0.352671
-0.323607 1.5 -0.235114
-0.283156 2 -0.205725
-0.647214 2.6 -0.470228
-0.570634 -3 -0.18541
-0.760845 -2.7 -0.247214
-1.14127 -2.4 -0.37082
-1.33148 -2 -0.432624
-1.42658 -1.5 -0.463526
-1.33148 -1 -0.432624
-0.570634 1 -0.18541
-0.380423 1.5 -0.123607
-0.33287 2 -0.108156
-0.760845 2.6 -0.247214
-0.6 -3 -7.34788e-17
-0.8 -2.7 -9.79717e-17
-1.2 -2.4 -1.46958e-16
-1.4 -2 -1.71451e-16
-1.5 -1.5 -1.83697e-16
-1.4 -1 -1.71451e-16
-0.6 1 -7.34788e-17
-0.4 1.5 -4.89859e-17
-0.35 2 -4.28626e-17
-0.8 2.6 -9.79717e-17
-0.570634 -3 0.18541
-0.760845 -2.7 0.247214
-1.14127 -2.4 0.37082
-1.33148 -2 0.432624
-1.42658 -1.5 0.463526
-1.33148 -1 0.432624
-0.570634 1 0.18541
-0.380423 1.5 0.123607
-0.33287 2 0.108156
-0.760845 2.6 0.247214
-0.48541 -3 0.352671
-0.647214 -2.7 0.470228
-0.97082 -2.4 0.705342
-1.13262 -2 0.822899
-1.21353 -1.5 0.881678
-1.13262 -1 0.822899
-0.48541 1 0.352671
-0.323607 1.5 0.235114
-0.283156 2 0.205725
-0.647214 2.6 0.470228
-0.352671 -3 0.48541
-0.470228 -2.7 0.647214
-0.705342 -2.4 0.97082
-0.822899 -2 1.13262
-0.881678 -1.5 1.21353
-0.822899 -1 1.13262
-0.352671 1 0.48541
-0.235114 1.5 0.323607
-0.205725 2 0.283156
-0.470228 2.6 0.647214
-0.18541 -3 0.570634
-0.247214 -2.7 0.760845
-0.37082 -2.4 1.14127
-0.432624 -2 1.33148
-0.463526 -1.5 1.42658
-0.432624 -1 1.33148
-0.18541 1 0.570634
-0.123607 1.5 0.380423
-0.108156 2 0.33287
-0.247214 2.6 0.760845
-1.10218e-16 -3 0.6
-1.46958e-16 -2.7 0.8
-2.20436e-16 -2.4 1.2
-2.57176e-16 -2 1.4
-2.75546e-16 -1.5 1.5
-2.57176e-16 -1 1.4
-1.10218e-16 1 0.6
-7.34788e-17 1.5 0.4
-6.4294e-17 2 0.35
-1.46958e-16 2.6 0.8
0.18541 -3 0.570634
0.247214 -2.7 0.760845
0.37082 -2.4 1.14127
0.432624 -2 1.33148
0.463526 -1.5 1.42658
0.432624 -1 1.33148
0.18541 1 0.570634
0.123607 1.5 0.380423
0.108156 2 0.33287
0.247214 2.6 0.760845
0.352671 -3 0.48541
0.470228 -2.7 0.647214
0.705342 -2.4 0.97082
0.822899 -2 1.13262
0.881678 -1.5 1.21353
0.822899 -1 1.13262
0.352671 1 0.48541
0.235114 1.5 0.323607
0.205725 2 0.283156
0.470228 2.6 0.647214
0.48541 -3 0.352671
0.647214 -2.7 0.470228
0.97082 -2.4 0.705342
1.13262 -2 0.822899
1.21353 -1.5 0.881678
1.13262 -1 0.822899
0.48541 1 0.352671
0.323607 1.5 0.235114
0.283156 2 0.205725
0.647214 2.6 0.470228
0.570634 -3 0.18541
0.760845 -2.7 0.247214
1.14127 -2.4 0.37082
1.33148 -2 0.432624
1.42658 -1.5 0.463526
1.33148 -1 0.432624
0.570634 1 0.18541
0.380423 1.5 0.123607
0.33287 2 0.108156
0.760845 2.6 0.247214
0 -3 0
0 2.6 0
3 10 11 1
3 1 0 10
3 11 12 2
3 2 1 11
3 12 13 3
3 3 2 12
3 13 14 4
3 4 3 13
3 14 15 5
3 5 4 14
3 15 16 6
3 6 5 15
3 16 17 7
3 7 6 16
3 17 18 8
3 8 7 17
3 18 19 9
3 9 8 18
3 20 21 11
3 11 10 20
3 21 22 12
3 12 11 21
3 22 23 13
3 13 12 22
3 23 24 14
3 14 13 23
3 24 25 15
3 15 14 24
3 25 26 16
3 16 15 25
3 26 27 17
3 17 16 26
3 27 28 18
3 18 17 27
3 28 29 19
3 19 18 28
3 30 31 21
3 21 20 30
3 31 32 22
3 22 21 31
3 32 33 23
3 23 22 32
3 33 34 24
3 24 23 33
3 34 35 25
3 25 24 34
3 35 36 26
3 26 25 35
3 36 37 27
3 27 26 36
3 37 38 28
3 28 27 37
3 38 39 29
3 29 28 38
3 40 41 31
3 31 30 40
3 41 42 32
3 32 31 41
3 42 43 33
3 33 32 42
3 43 44 34
3 34 33 43
3 44 45 35
3 35 34 44
3 45 46 36
3 36 35 45
3 46 47 37
3 37 36 46
3 47 48 38
3 38 37 47
3 48 49 39
3 39 38 48
3 50 51 41
3 41 40 50
3 51 52 42
3 42 41 51
3 52 53 43
3 43 42 52
3 53 54 44
3 44 43 53
3 54 55 45
3 45 44 54
3 55 56 46
3 46 45 55
3 56 57 47
3 47 46 56
3 57 58 48
3 48 47 57
3 58 59 49
3 49 48 58
3 60 61 51
3 51 50 60
3 61 62 52
3 52 51 61
3 62 63 53
3 53 52 62
3 63 64 54
3 54 53 63
3 64 65 55
3 55 54 64
3 65 66 56
3 56 55 65
3 66 67 57
3 57 56 66
3 67 68 58
3 58 57 67
3 68 69 59
3 59 58 68
3 70 71 61
3 61 60 70
3 71 72 62
3 62 61 71
3 72 73 63
3 63 62 72
3 73 74 64
3 64 63 73
3 74 75 65
3 65 64 74
3 75 76 66
3 66 65 75
3 76 77 67
3 67 66 76
3 77 78 68
3 68 67 77
3 78 79 69
3 69 68 78
3 80 81 71
3 71 70 80
3 81 82 72
3 72 71 81
3 82 83 73
3 73 72 82
3 83 84 74
3 74 73 83
3 84 85 75
3 75 74 84
3 85 86 76
3 76 75 85
3 86 87 77
3 77 76 86
3 87 88 78
3 78 77 87
3 88 89 79
3 79 78 88
3 90 91 81
3 81 80 90
3 91 92 82
3 82 81 91
3 92 93 83
3 83 82 92
3 93 94 84
3 84 83 93
3 94 95 85
3 85 84 94
3 95 96 86
3 86 85 95
3 96 97 87
3 87 86 96
3 97 98 88
3 88 87 97
3 98 99 89
3 89 88 98
3 100 101 91
3 91 90 100
3 101 102 92
3 92 91 101
3 102 103 93
3 93 92 102
3 103 104 94
3 94 93 103
3 104 105 95
3 95 94 104
3 105 106 96
3 96 95 105
3 106 107 97
3 97 96 106
3 107 108 98
3 98 97 107
3 108 109 99
3 99 98 108
3 110 111 101
3 101 100 110
3 111 112 102
3 102 101 111
3 112 113 103
3 103 102 112
3 113 114 104
3 104 103 113
3 114 115 105
3 105 104 114
3 115 116 106
3 106 105 115
3 116 117 107
3 107 106 116
3 117 118 108
3 108 107 117
3 118 119 109
3 109 108 118
3 120 121 111
3 111 110 120
3 121 122 112
3 112 111 121
3 122 123 113
3 113 112 122
3 123 124 114
3 114 113 123
3 124 125 115
3 115 114 124
3 125 126 116
3 116 115 125
3 126 127 117
3 117 116 126
3 127 128 118
3 118 117 127
3 128 129 119
3 119 118 128
3 130 131 121
3 121 120 130
3 131 132 122
3 122 121 131
3 132 133 123
3 123 122 132
3 133 134 124
3 124 123 133
3 134 135 125
3 125 124 134
3 135 136 126
3 126 125 135
3 136 137 127
3 127 126 136
3 137 138 128
3 128 127 137
3 138 139 129
3 129 128 138
3 140 141 131
3 131 130 140
3 141 142 132
3 132 131 141
3 142 143 133
3 133 132 142
3 143 144 134
3 134 133 143
3 144 145 135
3 135 134 144
3 145 146 136
3 136 135 145
3 146 147 137
3 137 136 146
3 147 148 138
3 138 137 147
3 148 149 139
3 139 138 148
3 150 151 141
3 141 140 150
3 151 152 142
3 142 141 151
3 152 153 143
3 143 142 152
3 153 154 144
3 144 143 153
3 154 155 145
3 145 144 154
3 155 156 146
3 146 145 155
3 156 157 147
3 147 146 156
3 157 158 148
3 148 147 157
3 158 159 149
3 149 148 158
3 160 161 151
3 151 150 160
3 161 162 152
3 152 151 161
3 162 163 153
3 153 152 162
3 163 164 154
3 154 153 163
3 164 165 155
3 155 154 164
3 165 166 156
3 156 155 165
3 166 167 157
3 157 156 166
3 167 168 158
3 158 157 167
3 168 169 159
3 159 158 168
3 170 171 161
3 161 160 170
3 171 172 162
3 162 161 171
3 172 173 163
3 163 162 172
3 173 174 164
3 164 163 173
3 174 175 165
3 165 164 174
3 175 176 166
3 166 165 175
3 176 177 167
3 167 166 176
3 177 178 168
3 168 167 177
3 178 179 169
3 169 168 178
3 180 181 171
3 171 170 180
3 181 182 172
3 172 171 181
3 182 183 173
3 173 172 182
3 183 184 174
3 174 173 183
3 184 185 175
3 175 174 184
3 185 186 176
3 176 175 185
3 186 187 177
3 177 176 186
3 187 188 178
3 178 177 187
3 188 189 179
3 179 178 188
3 190 191 181
3 181 180 190
3 191 192 182
3 182 181 191
3 192 193 183
3 183 182 192
3 193 194 184
3 184 183 193
3 194 195 185
3 185 184 194
3 195 196 186
3 186 185 195
3 196 197 187
3 187 186 196
3 197 198 188
3 188 187 197
3 198 199 189
3 189 188 198
3 0 1 191
3 191 190 0
3 1 2 192
3 192 191 1
3 2 3 193
3 193 192 2
3 3 4 194
3 194 193 3
3 4 5 195
3 195 194 4
3 5 6 196
3 196 195 5
3 6 7 197
3 197 196 6
3 7 8 198
3 198 197 7
3 8 9 199
3 199 198 8
3 0 200 10
3 10 200 20
3 20 200 30
3 30 200 40
3 40 200 50
3 50 200 60
3 60 200 70
3 70 200 80
3 80 200 90
3 90 200 100
3 100 200 110
3 110 200 120
3 120 200 130
3 130 200 140
3 140 200 150
3 150 200 160
3 160 200 170
3 170 200 180
3 180 200 190
3 190 200 0
3 9 201 19
3 19 201 29
3 29 201 39
3 39 201 49
3 49 201 59
3 59 201 69
3 69 201 79
3 79 201 89
3 89 201 99
3 99 201 109
3 109 201 119
3 119 201 129
3 129 201 139
3 139 201 149
3 149 201 159
3 159 201 169
3 169 201 179
3 179 201 189
3 189 201 199
3 199 201 9
