ply
format ascii 1.0
element vertex 202
property float32 x
property float32 y
property float32 z
element face 400
property list uint8 int32 vertex_indices
end_header
1 0 -1
1 0 1
0.998027 -0.0627905 -1
0.998027 -0.0627905 1
0.992115 -0.125333 -1
0.992115 -0.125333 1
0.982287 -0.187381 -1
0.982287 -0.187381 1
0.968583 -0.24869 -1
0.968583 -0.24869 1
0.951057 -0.309017 -1
0.951057 -0.309017 1
0.929776 -0.368125 -1
0.929776 -0.368125 1
0.904827 -0.425779 -1
0.904827 -0.425779 1
0.876307 -0.481754 -1
0.876307 -0.481754 1
0.844328 -0.535827 -1
0.844328 -0.535827 1
0.809017 -0.587785 -1
0.809017 -0.587785 1
0.770513 -0.637424 -1
0.770513 -0.637424 1
0.728969 -0.684547 -1
0.728969 -0.684547 1
0.684547 -0.728969 -1
0.684547 -0.728969 1
0.637424 -0.770513 -1
0.637424 -0.770513 1
0.587785 -0.809017 -1
0.587785 -0.809017 1
0.535827 -0.844328 -1
0.535827 -0.844328 1
0.481754 -0.876307 -1
0.481754 -0.876307 1
0.425779 -0.904827 -1
0.425779 -0.904827 1
0.368125 -0.929776 -1
0.368125 -0.929776 1
0.309017 -0.951057 -1
0.309017 -0.951057 1
0.24869 -0.968583 -1
0.24869 -0.968583 1
0.187381 -0.982287 -1
0.187381 -0.982287 1
0.125333 -0.992115 -1
0.125333 -0.992115 1
0.0627905 -0.998027 -1
0.0627905 -0.998027 1
6.12323e-17 -1 -1
6.12323e-17 -1 1
-0.0627905 -0.998027 -1
-0.0627905 -0.998027 1
-0.125333 -0.992115 -1
-0.125333 -0.992115 1
-0.187381 -0.982287 -1
-0.187381 -0.982287 1
-0.24869 -0.968583 -1
-0.24869 -0.968583 1
-0.309017 -0.951057 -1
-0.309017 -0.951057 1
-0.368125 -0.929776 -1
-0.368125 -0.929776 1
-0.425779 -0.904827 -1
-0.425779 -0.904827 1
-0.481754 -0.876307 -1
-0.481754 -0.876307 1
-0.535827 -0.844328 -1
-0.535827 -0.844328 1
-0.587785 -0.809017 -1
-0.587785 -0.809017 1
-0.637424 -0.770513 -1
-0.637424 -0.770513 1
-0.684547 -0.728969 -1
-0.684547 -0.728969 1
-0.728969 -0.684547 -1
-0.728969 -0.684547 1
-0.770513 -0.637424 -1
-0.770513 -0.637424 1
-0.809017 -0.587785 -1
-0.809017 -0.587785 1
-0.844328 -0.535827 -1
-0.844328 -0.535827 1
-0.876307 -0.481754 -1
-0.876307 -0.481754 1
-0.904827 -0.425779 -1
-0.904827 -0.425779 1
-0.929776 -0.368125 -1
-0.929776 -0.368125 1
-0.951057 -0.309017 -1
-0.951057 -0.309017 1
-0.968583 -0.24869 -1
-0.968583 -0.24869 1
-0.982287 -0.187381 -1
-0.982287 -0.187381 1
-0.992115 -0.125333 -1
-0.992115 -0.125333 1
-0.998027 -0.0627905 -1
-0.998027 -0.0627905 1
-1 -1.22465e-16 -1
-1 -1.22465e-16 1
-0.998027 0.0627905 -1
-0.998027 0.0627905 1
-0.992115 0.125333 -1
-0.992115 0.125333 1
-0.982287 0.187381 -1
-0.982287 0.187381 1
-0.968583 0.24869 -1
-0.968583 0.24869 1
-0.951057 0.309017 -1
-0.951057 0.309017 1
-0.929776 0.368125 -1
-0.929776 0.368125 1
-0.904827 0.425779 -1
-0.904827 0.425779 1
-0.876307 0.481754 -1
-0.876307 0.481754 1
-0.844328 0.535827 -1
-0.844328 0.535827 1
-0.809017 0.587785 -1
-0.809017 0.587785 1
-0.770513 0.637424 -1
-0.770513 0.637424 1
-0.728969 0.684547 -1
-0.728969 0.684547 1
-0.684547 0.728969 -1
-0.684547 0.728969 1
-0.637424 0.770513 -1
-0.637424 0.770513 1
-0.587785 0.809017 -1
-0.587785 0.809017 1
-0.535827 0.844328 -1
-0.535827 0.844328 1
-0.481754 0.876307 -1
-0.481754 0.876307 1
-0.425779 0.904827 -1
-0.425779 0.904827 1
-0.368125 0.929776 -1
-0.368125 0.929776 1
-0.309017 0.951057 -1
-0.309017 0.951057 1
-0.24869 0.968583 -1
-0.24869 0.968583 1
-0.187381 0.982287 -1
-0.187381 0.982287 1
-0.125333 0.992115 -1
-0.125333 0.992115 1
-0.0627905 0.998027 -1
-0.0627905 0.998027 1
-1.83697e-16 1 -1
-1.83697e-16 1 1
0.0627905 0.998027 -1
0.0627905 0.998027 1
0.125333 0.992115 -1
0.125333 0.992115 1
0.187381 0.982287 -1
0.187381 0.982287 1
0.24869 0.968583 -1
0.24869 0.968583 1
0.309017 0.951057 -1
0.309017 0.951057 1
0.368125 0.929776 -1
0.368125 0.929776 1
0.425779 0.904827 -1
0.425779 0.904827 1
0.481754 0.876307 -1
0.481754 0.876307 1
0.535827 0.844328 -1
0.535827 0.844328 1
0.587785 0.809017 -1
0.587785 0.809017 1
0.637424 0.770513 -1
0.637424 0.770513 1
0.684547 0.728969 -1
0.684547 0.728969 1
0.728969 0.684547 -1
0.728969 0.684547 1
0.770513 0.637424 -1
0.770513 0.637424 1
0.809017 0.587785 -1
0.809017 0.587785 1
0.844328 0.535827 -1
0.844328 0.535827 1
0.876307 0.481754 -1
0.876307 0.481754 1
0.904827 0.425779 -1
0.904827 0.425779 1
0.929776 0.368125 -1
0.929776 0.368125 1
0.951057 0.309017 -1
0.951057 0.309017 1
0.968583 0.24869 -1
0.968583 0.24869 1
0.982287 0.187381 -1
0.982287 0.187381 1
0.992115 0.125333 -1
0.992115 0.125333 1
0.998027 0.0627905 -1
0.998027 0.0627905 1
0 0 -1
0 0 1
3 2 3 1
3 1 0 2
3 4 5 3
3 3 2 4
3 6 7 5
3 5 4 6
3 8 9 7
3 7 6 8
3 10 11 9
3 9 8 10
3 12 13 11
3 11 10 12
3 14 15 13
3 13 12 14
3 16 17 15
3 15 14 16
3 18 19 17
3 17 16 18
3 20 21 19
3 19 18 20
3 22 23 21
3 21 20 22
3 24 25 23
3 23 22 24
3 26 27 25
3 25 24 26
3 28 29 27
3 27 26 28
3 30 31 29
3 29 28 30
3 32 33 31
3 31 30 32
3 34 35 33
3 33 32 34
3 36 37 35
3 35 34 36
3 38 39 37
3 37 36 38
3 40 41 39
3 39 38 40
3 42 43 41
3 41 40 42
3 44 45 43
3 43 42 44
3 46 47 45
3 45 44 46
3 48 49 47
3 47 46 48
3 50 51 49
3 49 48 50
3 52 53 51
3 51 50 52
3 54 55 53
3 53 52 54
3 56 57 55
3 55 54 56
3 58 59 57
3 57 56 58
3 60 61 59
3 59 58 60
3 62 63 61
3 61 60 62
3 64 65 63
3 63 62 64
3 66 67 65
3 65 64 66
3 68 69 67
3 67 66 68
3 70 71 69
3 69 68 70
3 72 73 71
3 71 70 72
3 74 75 73
3 73 72 74
3 76 77 75
3 75 74 76
3 78 79 77
3 77 76 78
3 80 81 79
3 79 78 80
3 82 83 81
3 81 80 82
3 84 85 83
3 83 82 84
3 86 87 85
3 85 84 86
3 88 89 87
3 87 86 88
3 90 91 89
3 89 88 90
3 92 93 91
3 91 90 92
3 94 95 93
3 93 92 94
3 96 97 95
3 95 94 96
3 98 99 97
3 97 96 98
3 100 101 99
3 99 98 100
3 102 103 101
3 101 100 102
3 104 105 103
3 103 102 104
3 106 107 105
3 105 104 106
3 108 109 107
3 107 106 108
3 110 111 109
3 109 108 110
3 112 113 111
3 111 110 112
3 114 115 113
3 113 112 114
3 116 117 115
3 115 114 116
3 118 119 117
3 117 116 118
3 120 121 119
3 119 118 120
3 122 123 121
3 121 120 122
3 124 125 123
3 123 122 124
3 126 127 125
3 125 124 126
3 128 129 127
3 127 126 128
3 130 131 129
3 129 128 130
3 132 133 131
3 131 130 132
3 134 135 133
3 133 132 134
3 136 137 135
3 135 134 136
3 138 139 137
3 137 136 138
3 140 141 139
3 139 138 140
3 142 143 141
3 141 140 142
3 144 145 143
3 143 142 144
3 146 147 145
3 145 144 146
3 148 149 147
3 147 146 148
3 150 151 149
3 149 148 150
3 152 153 151
3 151 150 152
3 154 155 153
3 153 152 154
3 156 157 155
3 155 154 156
3 158 159 157
3 157 156 158
3 160 161 159
3 159 158 160
3 162 163 161
3 161 160 162
3 164 165 163
3 163 162 164
3 166 167 165
3 165 164 166
3 168 169 167
3 167 166 168
3 170 171 169
3 169 168 170
3 172 173 171
3 171 170 172
3 174 175 173
3 173 172 174
3 176 177 175
3 175 174 176
3 178 179 177
3 177 176 178
3 180 181 179
3 179 178 180
3 182 183 181
3 181 180 182
3 184 185 183
3 183 182 184
3 186 187 185
3 185 184 186
3 188 189 187
3 187 186 188
3 190 191 189
3 189 188 190
3 192 193 191
3 191 190 192
3 194 195 193
3 193 192 194
3 196 197 195
3 195 194 196
3 198 199 197
3 197 196 198
3 0 1 199
3 199 198 0
3 0 200 2
3 2 200 4
3 4 200 6
3 6 200 8
3 8 200 10
3 10 200 12
3 12 200 14
3 14 200 16
3 16 200 18
3 18 200 20
3 20 200 22
3 22 200 24
3 24 200 26
3 26 200 28
3 28 200 30
3 30 200 32
3 32 200 34
3 34 200 36
3 36 200 38
3 38 200 40
3 40 200 42
3 42 200 44
3 44 200 46
3 46 200 48
3 48 200 50
3 50 200 52
3 52 200 54
3 54 200 56
3 56 200 58
3 58 200 60
3 60 200 62
3 62 200 64
3 64 200 66
3 66 200 68
3 68 200 70
3 70 200 72
3 72 200 74
3 74 200 76
3 76 200 78
3 78 200 80
3 80 200 82
3 82 200 84
3 84 200 86
3 86 200 88
3 88 200 90
3 90 200 92
3 92 200 94
3 94 200 96
3 96 200 98
3 98 200 100
3 100 200 102
3 102 200 104
3 104 200 106
3 106 200 108
3 108 200 110
3 110 200 112
3 112 200 114
3 114 200 116
3 116 200 118
3 118 200 120
3 120 200 122
3 122 200 124
3 124 200 126
3 126 200 128
3 128 200 130
3 130 200 132
3 132 200 134
3 134 200 136
3 136 200 138
3 138 200 140
3 140 200 142
3 142 200 144
3 144 200 146
3 146 200 148
3 148 200 150
3 150 200 152
3 152 200 154
3 154 200 156
3 156 200 158
3 158 200 160
3 160 200 162
3 162 200 164
3 164 200 166
3 166 200 168
3 168 200 170
3 170 200 172
3 172 200 174
3 174 200 176
3 176 200 178
3 178 200 180
3 180 200 182
3 182 200 184
3 184 200 186
3 186 200 188
3 188 200 190
3 190 200 192
3 192 200 194
3 194 200 196
3 196 200 198
3 198 200 0
3 1 201 3
3 3 201 5
3 5 201 7
3 7 201 9
3 9 201 11
3 11 201 13
3 13 201 15
3 15 201 17
3 17 201 19
3 19 201 21
3 21 201 23
3 23 201 25
3 25 201 27
3 27 201 29
3 29 201 31
3 31 201 33
3 33 201 35
3 35 201 37
3 37 201 39
3 39 201 41
3 41 201 43
3 43 201 45
3 45 201 47
3 47 201 49
3 49 201 51
3 51 201 53
3 53 201 55
3 55 201 57
3 57 201 59
3 59 201 61
3 61 201 63
3 63 201 65
3 65 201 67
3 67 201 69
3 69 201 71
3 71 201 73
3 73 201 75
3 75 201 77
3 77 201 79
3 79 201 81
3 81 201 83
3 83 201 85
3 85 201 87
3 87 201 89
3 89 201 91
3 91 201 93
3 93 201 95
3 95 201 97
3 97 201 99
3 99 201 101
3 101 201 103
3 103 201 105
3 105 201 107
3 107 201 109
3 109 201 111
3 111 201 113
3 113 201 115
3 115 201 117
3 117 201 119
3 119 201 121
3 121 201 123
3 123 201 125
3 125 201 127
3 127 201 129
3 129 201 131
3 131 201 133
3 133 201 135
3 135 201 137
3 137 201 139
3 139 201 141
3 141 201 143
3 143 201 145
3 145 201 147
3 147 201 149
3 149 201 151
3 151 201 153
3 153 201 155
3 155 201 157
3 157 201 159
3 159 201 161
3 161 201 163
3 163 201 165
3 165 201 167
3 167 201 169
3 169 201 171
3 171 201 173
3 173 201 175
3 175 201 177
3 177 201 179
3 179 201 181
3 181 201 183
3 183 201 185
3 185 201 187
3 187 201 189
3 189 201 191
3 191 201 193
3 193 201 195
3 195 201 197
3 197 201 199
3 199 201 1
