ply
format ascii 1.0
element vertex 1002
property float32 x
property float32 y
property float32 z
element face 2000
property list uint8 int32 vertex_indices
end_header
0.6 -3 0
0.8 -2.7 0
1.2 -2.4 0
1.4 -2 0
1.5 -1.5 0
1.4 -1 0
0.6 1 0
0.4 1.5 0
0.35 2 0
0.8 2.6 0
0.598816 -3 -0.0376743
0.798421 -2.7 -0.0502324
1.19763 -2.4 -0.0753486
1.39724 -2 -0.0879067
1.49704 -1.5 -0.0941858
1.39724 -1 -0.0879067
0.598816 1 -0.0376743
0.399211 1.5 -0.0251162
0.349309 2 -0.0219767
0.798421 2.6 -0.0502324
0.595269 -3 -0.0751999
0.793692 -2.7 -0.100267
1.19054 -2.4 -0.1504
1.38896 -2 -0.175467
1.48817 -1.5 -0.188
1.38896 -1 -0.175467
0.595269 1 -0.0751999
0.396846 1.5 -0.0501333
0.34724 2 -0.0438666
0.793692 2.6 -0.100267
0.589372 -3 -0.112429
0.78583 -2.7 -0.149905
1.17874 -2.4 -0.224858
1.3752 -2 -0.262334
1.47343 -1.5 -0.281072
1.3752 -1 -0.262334
0.589372 1 -0.112429
0.392915 1.5 -0.0749525
0.343801 2 -0.0655835
0.78583 2.6 -0.149905
0.58115 -3 -0.149214
0.774867 -2.7 -0.198952
1.1623 -2.4 -0.298428
1.35602 -2 -0.348166
1.45287 -1.5 -0.373035
1.35602 -1 -0.348166
0.58115 1 -0.149214
0.387433 1.5 -0.099476
0.339004 2 -0.0870415
0.774867 2.6 -0.198952
0.570634 -3 -0.18541
0.760845 -2.7 -0.247214
1.14127 -2.4 -0.37082
1.33148 -2 -0.432624
1.42658 -1.5 -0.463526
1.33148 -1 -0.432624
0.570634 1 -0.18541
0.380423 1.5 -0.123607
0.33287 2 -0.108156
0.760845 2.6 -0.247214
0.557866 -3 -0.220875
0.743821 -2.7 -0.2945
1.11573 -2.4 -0.441749
1.30169 -2 -0.515374
1.39466 -1.5 -0.552187
1.30169 -1 -0.515374
0.557866 1 -0.220875
0.371911 1.5 -0.14725
0.325422 2 -0.128844
0.743821 2.6 -0.2945
0.542896 -3 -0.255468
0.723862 -2.7 -0.340623
1.08579 -2.4 -0.510935
1.26676 -2 -0.596091
1.35724 -1.5 -0.638669
1.26676 -1 -0.596091
0.542896 1 -0.255468
0.361931 1.5 -0.170312
0.316689 2 -0.149023
0.723862 2.6 -0.340623
0.525784 -3 -0.289052
0.701045 -2.7 -0.385403
1.05157 -2.4 -0.578104
1.22683 -2 -0.674455
1.31446 -1.5 -0.722631
1.22683 -1 -0.674455
0.525784 1 -0.289052
0.350523 1.5 -0.192701
0.306707 2 -0.168614
0.701045 2.6 -0.385403
0.506597 -3 -0.321496
0.675462 -2.7 -0.428661
1.01319 -2.4 -0.642992
1.18206 -2 -0.750157
1.26649 -1.5 -0.80374
1.18206 -1 -0.750157
0.506597 1 -0.321496
0.337731 1.5 -0.214331
0.295515 2 -0.187539
0.675462 2.6 -0.428661
0.48541 -3 -0.352671
0.647214 -2.7 -0.470228
0.97082 -2.4 -0.705342
1.13262 -2 -0.822899
1.21353 -1.5 -0.881678
1.13262 -1 -0.822899
0.48541 1 -0.352671
0.323607 1.5 -0.235114
0.283156 2 -0.205725
0.647214 2.6 -0.470228
0.462308 -3 -0.382454
0.616411 -2.7 -0.509939
0.924616 -2.4 -0.764909
1.07872 -2 -0.892394
1.15577 -1.5 -0.956136
1.07872 -1 -0.892394
0.462308 1 -0.382454
0.308205 1.5 -0.25497
0.26968 2 -0.223098
0.616411 2.6 -0.509939
0.437381 -3 -0.410728
0.583175 -2.7 -0.547638
0.874762 -2.4 -0.821457
1.02056 -2 -0.958366
1.09345 -1.5 -1.02682
1.02056 -1 -0.958366
0.437381 1 -0.410728
0.291587 1.5 -0.273819
0.255139 2 -0.239591
0.583175 2.6 -0.547638
0.410728 -3 -0.437381
0.547638 -2.7 -0.583175
0.821457 -2.4 -0.874762
0.958366 -2 -1.02056
1.02682 -1.5 -1.09345
0.958366 -1 -1.02056
0.410728 1 -0.437381
0.273819 1.5 -0.291587
0.239591 2 -0.255139
0.547638 2.6 -0.583175
0.382454 -3 -0.462308
0.509939 -2.7 -0.616411
0.764909 -2.4 -0.924616
0.892394 -2 -1.07872
0.956136 -1.5 -1.15577
0.892394 -1 -1.07872
0.382454 1 -0.462308
0.25497 1.5 -0.308205
0.223098 2 -0.26968
0.509939 2.6 -0.616411
0.352671 -3 -0.48541
0.470228 -2.7 -0.647214
0.705342 -2.4 -0.97082
0.822899 -2 -1.13262
0.881678 -1.5 -1.21353
0.822899 -1 -1.13262
0.352671 1 -0.48541
0.235114 1.5 -0.323607
0.205725 2 -0.283156
0.470228 2.6 -0.647214
0.321496 -3 -0.506597
0.428661 -2.7 -0.675462
0.642992 -2.4 -1.01319
0.750157 -2 -1.18206
0.80374 -1.5 -1.26649
0.750157 -1 -1.18206
0.321496 1 -0.506597
0.214331 1.5 -0.337731
0.187539 2 -0.295515
0.428661 2.6 -0.675462
0.289052 -3 -0.525784
0.385403 -2.7 -0.701045
0.578104 -2.4 -1.05157
0.674455 -2 -1.22683
0.722631 -1.5 -1.31446
0.674455 -1 -1.22683
0.289052 1 -0.525784
0.192701 1.5 -0.350523
0.168614 2 -0.306707
0.385403 2.6 -0.701045
0.255468 -3 -0.542896
0.340623 -2.7 -0.723862
0.510935 -2.4 -1.08579
0.596091 -2 -1.26676
0.638669 -1.5 -1.35724
0.596091 -1 -1.26676
0.255468 1 -0.542896
0.170312 1.5 -0.361931
0.149023 2 -0.316689
0.340623 2.6 -0.723862
0.220875 -3 -0.557866
0.2945 -2.7 -0.743821
0.441749 -2.4 -1.11573
0.515374 -2 -1.30169
0.552187 -1.5 -1.39466
0.515374 -1 -1.30169
0.220875 1 -0.557866
0.14725 1.5 -0.371911
0.128844 2 -0.325422
0.2945 2.6 -0.743821
0.18541 -3 -0.570634
0.247214 -2.7 -0.760845
0.37082 -2.4 -1.14127
0.432624 -2 -1.33148
0.463526 -1.5 -1.42658
0.432624 -1 -1.33148
0.18541 1 -0.570634
0.123607 1.5 -0.380423
0.108156 2 -0.33287
0.247214 2.6 -0.760845
0.149214 -3 -0.58115
0.198952 -2.7 -0.774867
0.298428 -2.4 -1.1623
0.348166 -2 -1.35602
0.373035 -1.5 -1.45287
0.348166 -1 -1.35602
0.149214 1 -0.58115
0.099476 1.5 -0.387433
0.0870415 2 -0.339004
0.198952 2.6 -0.774867
0.112429 -3 -0.589372
0.149905 -2.7 -0.78583
0.224858 -2.4 -1.17874
0.262334 -2 -1.3752
0.281072 -1.5 -1.47343
0.262334 -1 -1.3752
0.112429 1 -0.589372
0.0749525 1.5 -0.392915
0.0655835 2 -0.343801
0.149905 2.6 -0.78583
0.0751999 -3 -0.595269
0.100267 -2.7 -0.793692
0.1504 -2.4 -1.19054
0.175467 -2 -1.38896
0.188 -1.5 -1.48817
0.175467 -1 -1.38896
0.0751999 1 -0.595269
0.0501333 1.5 -0.396846
0.0438666 2 -0.34724
0.100267 2.6 -0.793692
0.0376743 -3 -0.598816
0.0502324 -2.7 -0.798421
0.0753486 -2.4 -1.19763
0.0879067 -2 -1.39724
0.0941858 -1.5 -1.49704
0.0879067 -1 -1.39724
0.0376743 1 -0.598816
0.0251162 1.5 -0.399211
0.0219767 2 -0.349309
0.0502324 2.6 -0.798421
3.67394e-17 -3 -0.6
4.89859e-17 -2.7 -0.8
7.34788e-17 -2.4 -1.2
8.57253e-17 -2 -1.4
9.18485e-17 -1.5 -1.5
8.57253e-17 -1 -1.4
3.67394e-17 1 -0.6
2.44929e-17 1.5 -0.4
2.14313e-17 2 -0.35
4.89859e-17 2.6 -0.8
-0.0376743 -3 -0.598816
-0.0502324 -2.7 -0.798421
-0.0753486 -2.4 -1.19763
-0.0879067 -2 -1.39724
-0.0941858 -1.5 -1.49704
-0.0879067 -1 -1.39724
-0.0376743 1 -0.598816
-0.0251162 1.5 -0.399211
-0.0219767 2 -0.349309
-0.0502324 2.6 -0.798421
-0.0751999 -3 -0.595269
-0.100267 -2.7 -0.793692
-0.1504 -2.4 -1.19054
-0.175467 -2 -1.38896
-0.188 -1.5 -1.48817
-0.175467 -1 -1.38896
-0.0751999 1 -0.595269
-0.0501333 1.5 -0.396846
-0.0438666 2 -0.34724
-0.100267 2.6 -0.793692
-0.112429 -3 -0.589372
-0.149905 -2.7 -0.78583
-0.224858 -2.4 -1.17874
-0.262334 -2 -1.3752
-0.281072 -1.5 -1.47343
-0.262334 -1 -1.3752
-0.112429 1 -0.589372
-0.0749525 1.5 -0.392915
-0.0655835 2 -0.343801
-0.149905 2.6 -0.78583
-0.149214 -3 -0.58115
-0.198952 -2.7 -0.774867
-0.298428 -2.4 -1.1623
-0.348166 -2 -1.35602
-0.373035 -1.5 -1.45287
-0.348166 -1 -1.35602
-0.149214 1 -0.58115
-0.099476 1.5 -0.387433
-0.0870415 2 -0.339004
-0.198952 2.6 -0.774867
-0.18541 -3 -0.570634
-0.247214 -2.7 -0.760845
-0.37082 -2.4 -1.14127
-0.432624 -2 -1.33148
-0.463526 -1.5 -1.42658
-0.432624 -1 -1.33148
-0.18541 1 -0.570634
-0.123607 1.5 -0.380423
-0.108156 2 -0.33287
-0.247214 2.6 -0.760845
-0.220875 -3 -0.557866
-0.2945 -2.7 -0.743821
-0.441749 -2.4 -1.11573
-0.515374 -2 -1.30169
-0.552187 -1.5 -1.39466
-0.515374 -1 -1.30169
-0.220875 1 -0.557866
-0.14725 1.5 -0.371911
-0.128844 2 -0.325422
-0.2945 2.6 -0.743821
-0.255468 -3 -0.542896
-0.340623 -2.7 -0.723862
-0.510935 -2.4 -1.08579
-0.596091 -2 -1.26676
-0.638669 -1.5 -1.35724
-0.596091 -1 -1.26676
-0.255468 1 -0.542896
-0.170312 1.5 -0.361931
-0.149023 2 -0.316689
-0.340623 2.6 -0.723862
-0.289052 -3 -0.525784
-0.385403 -2.7 -0.701045
-0.578104 -2.4 -1.05157
-0.674455 -2 -1.22683
-0.722631 -1.5 -1.31446
-0.674455 -1 -1.22683
-0.289052 1 -0.525784
-0.192701 1.5 -0.350523
-0.168614 2 -0.306707
-0.385403 2.6 -0.701045
-0.321496 -3 -0.506597
-0.428661 -2.7 -0.675462
-0.642992 -2.4 -1.01319
-0.750157 -2 -1.18206
-0.80374 -1.5 -1.26649
-0.750157 -1 -1.18206
-0.321496 1 -0.506597
-0.214331 1.5 -0.337731
-0.187539 2 -0.295515
-0.428661 2.6 -0.675462
-0.352671 -3 -0.48541
-0.470228 -2.7 -0.647214
-0.705342 -2.4 -0.97082
-0.822899 -2 -1.13262
-0.881678 -1.5 -1.21353
-0.822899 -1 -1.13262
-0.352671 1 -0.48541
-0.235114 1.5 -0.323607
-0.205725 2 -0.283156
-0.470228 2.6 -0.647214
-0.382454 -3 -0.462308
-0.509939 -2.7 -0.616411
-0.764909 -2.4 -0.924616
-0.892394 -2 -1.07872
-0.956136 -1.5 -1.15577
-0.892394 -1 -1.07872
-0.382454 1 -0.462308
-0.25497 1.5 -0.308205
-0.223098 2 -0.26968
-0.509939 2.6 -0.616411
-0.410728 -3 -0.437381
-0.547638 -2.7 -0.583175
-0.821457 -2.4 -0.874762
-0.958366 -2 -1.02056
-1.02682 -1.5 -1.09345
-0.958366 -1 -1.02056
-0.410728 1 -0.437381
-0.273819 1.5 -0.291587
-0.239591 2 -0.255139
-0.547638 2.6 -0.583175
-0.437381 -3 -0.410728
-0.583175 -2.7 -0.547638
-0.874762 -2.4 -0.821457
-1.02056 -2 -0.958366
-1.09345 -1.5 -1.02682
-1.02056 -1 -0.958366
-0.437381 1 -0.410728
-0.291587 1.5 -0.273819
-0.255139 2 -0.239591
-0.583175 2.6 -0.547638
-0.462308 -3 -0.382454
-0.616411 -2.7 -0.509939
-0.924616 -2.4 -0.764909
-1.07872 -2 -0.892394
-1.15577 -1.5 -0.956136
-1.07872 -1 -0.892394
-0.462308 1 -0.382454
-0.308205 1.5 -0.25497
-0.26968 2 -0.223098
-0.616411 2.6 -0.509939
-0.48541 -3 -0.352671
-0.647214 -2.7 -0.470228
-0.97082 -2.4 -0.705342
-1.13262 -2 -0.822899
-1.21353 -1.5 -0.881678
-1.13262 -1 -0.822899
-0.48541 1 -0.352671
-0.323607 1.5 -0.235114
-0.283156 2 -0.205725
-0.647214 2.6 -0.470228
-0.506597 -3 -0.321496
-0.675462 -2.7 -0.428661
-1.01319 -2.4 -0.642992
-1.18206 -2 -0.750157
-1.26649 -1.5 -0.80374
-1.18206 -1 -0.750157
-0.506597 1 -0.321496
-0.337731 1.5 -0.214331
-0.295515 2 -0.187539
-0.675462 2.6 -0.428661
-0.525784 -3 -0.289052
-0.701045 -2.7 -0.385403
-1.05157 -2.4 -0.578104
-1.22683 -2 -0.674455
-1.31446 -1.5 -0.722631
-1.22683 -1 -0.674455
-0.525784 1 -0.289052
-0.350523 1.5 -0.192701
-0.306707 2 -0.168614
-0.701045 2.6 -0.385403
-0.542896 -3 -0.255468
-0.723862 -2.7 -0.340623
-1.08579 -2.4 -0.510935
-1.26676 -2 -0.596091
-1.35724 -1.5 -0.638669
-1.26676 -1 -0.596091
-0.542896 1 -0.255468
-0.361931 1.5 -0.170312
-0.316689 2 -0.149023
-0.723862 2.6 -0.340623
-0.557866 -3 -0.220875
-0.743821 -2.7 -0.2945
-1.11573 -2.4 -0.441749
-1.30169 -2 -0.515374
-1.39466 -1.5 -0.552187
-1.30169 -1 -0.515374
-0.557866 1 -0.220875
-0.371911 1.5 -0.14725
-0.325422 2 -0.128844
-0.743821 2.6 -0.2945
-0.570634 -3 -0.18541
-0.760845 -2.7 -0.247214
-1.14127 -2.4 -0.37082
-1.33148 -2 -0.432624
-1.42658 -1.5 -0.463526
-1.33148 -1 -0.432624
-0.570634 1 -0.18541
-0.380423 1.5 -0.123607
-0.33287 2 -0.108156
-0.760845 2.6 -0.247214
-0.58115 -3 -0.149214
-0.774867 -2.7 -0.198952
-1.1623 -2.4 -0.298428
-1.35602 -2 -0.348166
-1.45287 -1.5 -0.373035
-1.35602 -1 -0.348166
-0.58115 1 -0.149214
-0.387433 1.5 -0.099476
-0.339004 2 -0.0870415
-0.774867 2.6 -0.198952
-0.589372 -3 -0.112429
-0.78583 -2.7 -0.149905
-1.17874 -2.4 -0.224858
-1.3752 -2 -0.262334
-1.47343 -1.5 -0.281072
-1.3752 -1 -0.262334
-0.589372 1 -0.112429
-0.392915 1.5 -0.0749525
-0.343801 2 -0.0655835
-0.78583 2.6 -0.149905
-0.595269 -3 -0.0751999
-0.793692 -2.7 -0.100267
-1.19054 -2.4 -0.1504
-1.38896 -2 -0.175467
-1.48817 -1.5 -0.188
-1.38896 -1 -0.175467
-0.595269 1 -0.0751999
-0.396846 1.5 -0.0501333
-0.34724 2 -0.0438666
-0.793692 2.6 -0.100267
-0.598816 -3 -0.0376743
-0.798421 -2.7 -0.0502324
-1.19763 -2.4 -0.0753486
-1.39724 -2 -0.0879067
-1.49704 -1.5 -0.0941858
-1.39724 -1 -0.0879067
-0.598816 1 -0.0376743
-0.399211 1.5 -0.0251162
-0.349309 2 -0.0219767
-0.798421 2.6 -0.0502324
-0.6 -3 -7.34788e-17
-0.8 -2.7 -9.79717e-17
-1.2 -2.4 -1.46958e-16
-1.4 -2 -1.71451e-16
-1.5 -1.5 -1.83697e-16
-1.4 -1 -1.71451e-16
-0.6 1 -7.34788e-17
-0.4 1.5 -4.89859e-17
-0.35 2 -4.28626e-17
-0.8 2.6 -9.79717e-17
-0.598816 -3 0.0376743
-0.798421 -2.7 0.0502324
-1.19763 -2.4 0.0753486
-1.39724 -2 0.0879067
-1.49704 -1.5 0.0941858
-1.39724 -1 0.0879067
-0.598816 1 0.0376743
-0.399211 1.5 0.0251162
-0.349309 2 0.0219767
-0.798421 2.6 0.0502324
-0.595269 -3 0.0751999
-0.793692 -2.7 0.100267
-1.19054 -2.4 0.1504
-1.38896 -2 0.175467
-1.48817 -1.5 0.188
-1.38896 -1 0.175467
-0.595269 1 0.0751999
-0.396846 1.5 0.0501333
-0.34724 2 0.0438666
-0.793692 2.6 0.100267
-0.589372 -3 0.112429
-0.78583 -2.7 0.149905
-1.17874 -2.4 0.224858
-1.3752 -2 0.262334
-1.47343 -1.5 0.281072
-1.3752 -1 0.262334
-0.589372 1 0.112429
-0.392915 1.5 0.0749525
-0.343801 2 0.0655835
-0.78583 2.6 0.149905
-0.58115 -3 0.149214
-0.774867 -2.7 0.198952
-1.1623 -2.4 0.298428
-1.35602 -2 0.348166
-1.45287 -1.5 0.373035
-1.35602 -1 0.348166
-0.58115 1 0.149214
-0.387433 1.5 0.099476
-0.339004 2 0.0870415
-0.774867 2.6 0.198952
-0.570634 -3 0.18541
-0.760845 -2.7 0.247214
-1.14127 -2.4 0.37082
-1.33148 -2 0.432624
-1.42658 -1.5 0.463526
-1.33148 -1 0.432624
-0.570634 1 0.18541
-0.380423 1.5 0.123607
-0.33287 2 0.108156
-0.760845 2.6 0.247214
-0.557866 -3 0.220875
-0.743821 -2.7 0.2945
-1.11573 -2.4 0.441749
-1.30169 -2 0.515374
-1.39466 -1.5 0.552187
-1.30169 -1 0.515374
-0.557866 1 0.220875
-0.371911 1.5 0.14725
-0.325422 2 0.128844
-0.743821 2.6 0.2945
-0.542896 -3 0.255468
-0.723862 -2.7 0.340623
-1.08579 -2.4 0.510935
-1.26676 -2 0.596091
-1.35724 -1.5 0.638669
-1.26676 -1 0.596091
-0.542896 1 0.255468
-0.361931 1.5 0.170312
-0.316689 2 0.149023
-0.723862 2.6 0.340623
-0.525784 -3 0.289052
-0.701045 -2.7 0.385403
-1.05157 -2.4 0.578104
-1.22683 -2 0.674455
-1.31446 -1.5 0.722631
-1.22683 -1 0.674455
-0.525784 1 0.289052
-0.350523 1.5 0.192701
-0.306707 2 0.168614
-0.701045 2.6 0.385403
-0.506597 -3 0.321496
-0.675462 -2.7 0.428661
-1.01319 -2.4 0.642992
-1.18206 -2 0.750157
-1.26649 -1.5 0.80374
-1.18206 -1 0.750157
-0.506597 1 0.321496
-0.337731 1.5 0.214331
-0.295515 2 0.187539
-0.675462 2.6 0.428661
-0.48541 -3 0.352671
-0.647214 -2.7 0.470228
-0.97082 -2.4 0.705342
-1.13262 -2 0.822899
-1.21353 -1.5 0.881678
-1.13262 -1 0.822899
-0.48541 1 0.352671
-0.323607 1.5 0.235114
-0.283156 2 0.205725
-0.647214 2.6 0.470228
-0.462308 -3 0.382454
-0.616411 -2.7 0.509939
-0.924616 -2.4 0.764909
-1.07872 -2 0.892394
-1.15577 -1.5 0.956136
-1.07872 -1 0.892394
-0.462308 1 0.382454
-0.308205 1.5 0.25497
-0.26968 2 0.223098
-0.616411 2.6 0.509939
-0.437381 -3 0.410728
-0.583175 -2.7 0.547638
-0.874762 -2.4 0.821457
-1.02056 -2 0.958366
-1.09345 -1.5 1.02682
-1.02056 -1 0.958366
-0.437381 1 0.410728
-0.291587 1.5 0.273819
-0.255139 2 0.239591
-0.583175 2.6 0.547638
-0.410728 -3 0.437381
-0.547638 -2.7 0.583175
-0.821457 -2.4 0.874762
-0.958366 -2 1.02056
-1.02682 -1.5 1.09345
-0.958366 -1 1.02056
-0.410728 1 0.437381
-0.273819 1.5 0.291587
-0.239591 2 0.255139
-0.547638 2.6 0.583175
-0.382454 -3 0.462308
-0.509939 -2.7 0.616411
-0.764909 -2.4 0.924616
-0.892394 -2 1.07872
-0.956136 -1.5 1.15577
-0.892394 -1 1.07872
-0.382454 1 0.462308
-0.25497 1.5 0.308205
-0.223098 2 0.26968
-0.509939 2.6 0.616411
-0.352671 -3 0.48541
-0.470228 -2.7 0.647214
-0.705342 -2.4 0.97082
-0.822899 -2 1.13262
-0.881678 -1.5 1.21353
-0.822899 -1 1.13262
-0.352671 1 0.48541
-0.235114 1.5 0.323607
-0.205725 2 0.283156
-0.470228 2.6 0.647214
-0.321496 -3 0.506597
-0.428661 -2.7 0.675462
-0.642992 -2.4 1.01319
-0.750157 -2 1.18206
-0.80374 -1.5 1.26649
-0.750157 -1 1.18206
-0.321496 1 0.506597
-0.214331 1.5 0.337731
-0.187539 2 0.295515
-0.428661 2.6 0.675462
-0.289052 -3 0.525784
-0.385403 -2.7 0.701045
-0.578104 -2.4 1.05157
-0.674455 -2 1.22683
-0.722631 -1.5 1.31446
-0.674455 -1 1.22683
-0.289052 1 0.525784
-0.192701 1.5 0.350523
-0.168614 2 0.306707
-0.385403 2.6 0.701045
-0.255468 -3 0.542896
-0.340623 -2.7 0.723862
-0.510935 -2.4 1.08579
-0.596091 -2 1.26676
-0.638669 -1.5 1.35724
-0.596091 -1 1.26676
-0.255468 1 0.542896
-0.170312 1.5 0.361931
-0.149023 2 0.316689
-0.340623 2.6 0.723862
-0.220875 -3 0.557866
-0.2945 -2.7 0.743821
-0.441749 -2.4 1.11573
-0.515374 -2 1.30169
-0.552187 -1.5 1.39466
-0.515374 -1 1.30169
-0.220875 1 0.557866
-0.14725 1.5 0.371911
-0.128844 2 0.325422
-0.2945 2.6 0.743821
-0.18541 -3 0.570634
-0.247214 -2.7 0.760845
-0.37082 -2.4 1.14127
-0.432624 -2 1.33148
-0.463526 -1.5 1.42658
-0.432624 -1 1.33148
-0.18541 1 0.570634
-0.123607 1.5 0.380423
-0.108156 2 0.33287
-0.247214 2.6 0.760845
-0.149214 -3 0.58115
-0.198952 -2.7 0.774867
-0.298428 -2.4 1.1623
-0.348166 -2 1.35602
-0.373035 -1.5 1.45287
-0.348166 -1 1.35602
-0.149214 1 0.58115
-0.099476 1.5 0.387433
-0.0870415 2 0.339004
-0.198952 2.6 0.774867
-0.112429 -3 0.589372
-0.149905 -2.7 0.78583
-0.224858 -2.4 1.17874
-0.262334 -2 1.3752
-0.281072 -1.5 1.47343
-0.262334 -1 1.3752
-0.112429 1 0.589372
-0.0749525 1.5 0.392915
-0.0655835 2 0.343801
-0.149905 2.6 0.78583
-0.0751999 -3 0.595269
-0.100267 -2.7 0.793692
-0.1504 -2.4 1.19054
-0.175467 -2 1.38896
-0.188 -1.5 1.48817
-0.175467 -1 1.38896
-0.0751999 1 0.595269
-0.0501333 1.5 0.396846
-0.0438666 2 0.34724
-0.100267 2.6 0.793692
-0.0376743 -3 0.598816
-0.0502324 -2.7 0.798421
-0.0753486 -2.4 1.19763
-0.0879067 -2 1.39724
-0.0941858 -1.5 1.49704
-0.0879067 -1 1.39724
-0.0376743 1 0.598816
-0.0251162 1.5 0.399211
-0.0219767 2 0.349309
-0.0502324 2.6 0.798421
-1.10218e-16 -3 0.6
-1.46958e-16 -2.7 0.8
-2.20436e-16 -2.4 1.2
-2.57176e-16 -2 1.4
-2.75546e-16 -1.5 1.5
-2.57176e-16 -1 1.4
-1.10218e-16 1 0.6
-7.34788e-17 1.5 0.4
-6.4294e-17 2 0.35
-1.46958e-16 2.6 0.8
0.0376743 -3 0.598816
0.0502324 -2.7 0.798421
0.0753486 -2.4 1.19763
0.0879067 -2 1.39724
0.0941858 -1.5 1.49704
0.0879067 -1 1.39724
0.0376743 1 0.598816
0.0251162 1.5 0.399211
0.0219767 2 0.349309
0.0502324 2.6 0.798421
0.0751999 -3 0.595269
0.100267 -2.7 0.793692
0.1504 -2.4 1.19054
0.175467 -2 1.38896
0.188 -1.5 1.48817
0.175467 -1 1.38896
0.0751999 1 0.595269
0.0501333 1.5 0.396846
0.0438666 2 0.34724
0.100267 2.6 0.793692
0.112429 -3 0.589372
0.149905 -2.7 0.78583
0.224858 -2.4 1.17874
0.262334 -2 1.3752
0.281072 -1.5 1.47343
0.262334 -1 1.3752
0.112429 1 0.589372
0.0749525 1.5 0.392915
0.0655835 2 0.343801
0.149905 2.6 0.78583
0.149214 -3 0.58115
0.198952 -2.7 0.774867
0.298428 -2.4 1.1623
0.348166 -2 1.35602
0.373035 -1.5 1.45287
0.348166 -1 1.35602
0.149214 1 0.58115
0.099476 1.5 0.387433
0.0870415 2 0.339004
0.198952 2.6 0.774867
0.18541 -3 0.570634
0.247214 -2.7 0.760845
0.37082 -2.4 1.14127
0.432624 -2 1.33148
0.463526 -1.5 1.42658
0.432624 -1 1.33148
0.18541 1 0.570634
0.123607 1.5 0.380423
0.108156 2 0.33287
0.247214 2.6 0.760845
0.220875 -3 0.557866
0.2945 -2.7 0.743821
0.441749 -2.4 1.11573
0.515374 -2 1.30169
0.552187 -1.5 1.39466
0.515374 -1 1.30169
0.220875 1 0.557866
0.14725 1.5 0.371911
0.128844 2 0.325422
0.2945 2.6 0.743821
0.255468 -3 0.542896
0.340623 -2.7 0.723862
0.510935 -2.4 1.08579
0.596091 -2 1.26676
0.638669 -1.5 1.35724
0.596091 -1 1.26676
0.255468 1 0.542896
0.170312 1.5 0.361931
0.149023 2 0.316689
0.340623 2.6 0.723862
0.289052 -3 0.525784
0.385403 -2.7 0.701045
0.578104 -2.4 1.05157
0.674455 -2 1.22683
0.722631 -1.5 1.31446
0.674455 -1 1.22683
0.289052 1 0.525784
0.192701 1.5 0.350523
0.168614 2 0.306707
0.385403 2.6 0.701045
0.321496 -3 0.506597
0.428661 -2.7 0.675462
0.642992 -2.4 1.01319
0.750157 -2 1.18206
0.80374 -1.5 1.26649
0.750157 -1 1.18206
0.321496 1 0.506597
0.214331 1.5 0.337731
0.187539 2 0.295515
0.428661 2.6 0.675462
0.352671 -3 0.48541
0.470228 -2.7 0.647214
0.705342 -2.4 0.97082
0.822899 -2 1.13262
0.881678 -1.5 1.21353
0.822899 -1 1.13262
0.352671 1 0.48541
0.235114 1.5 0.323607
0.205725 2 0.283156
0.470228 2.6 0.647214
0.382454 -3 0.462308
0.509939 -2.7 0.616411
0.764909 -2.4 0.924616
0.892394 -2 1.07872
0.956136 -1.5 1.15577
0.892394 -1 1.07872
0.382454 1 0.462308
0.25497 1.5 0.308205
0.223098 2 0.26968
0.509939 2.6 0.616411
0.410728 -3 0.437381
0.547638 -2.7 0.583175
0.821457 -2.4 0.874762
0.958366 -2 1.02056
1.02682 -1.5 1.09345
0.958366 -1 1.02056
0.410728 1 0.437381
0.273819 1.5 0.291587
0.239591 2 0.255139
0.547638 2.6 0.583175
0.437381 -3 0.410728
0.583175 -2.7 0.547638
0.874762 -2.4 0.821457
1.02056 -2 0.958366
1.09345 -1.5 1.02682
1.02056 -1 0.958366
0.437381 1 0.410728
0.291587 1.5 0.273819
0.255139 2 0.239591
0.583175 2.6 0.547638
0.462308 -3 0.382454
0.616411 -2.7 0.509939
0.924616 -2.4 0.764909
1.07872 -2 0.892394
1.15577 -1.5 0.956136
1.07872 -1 0.892394
0.462308 1 0.382454
0.308205 1.5 0.25497
0.26968 2 0.223098
0.616411 2.6 0.509939
0.48541 -3 0.352671
0.647214 -2.7 0.470228
0.97082 -2.4 0.705342
1.13262 -2 0.822899
1.21353 -1.5 0.881678
1.13262 -1 0.822899
0.48541 1 0.352671
0.323607 1.5 0.235114
0.283156 2 0.205725
0.647214 2.6 0.470228
0.506597 -3 0.321496
0.675462 -2.7 0.428661
1.01319 -2.4 0.642992
1.18206 -2 0.750157
1.26649 -1.5 0.80374
1.18206 -1 0.750157
0.506597 1 0.321496
0.337731 1.5 0.214331
0.295515 2 0.187539
0.675462 2.6 0.428661
0.525784 -3 0.289052
0.701045 -2.7 0.385403
1.05157 -2.4 0.578104
1.22683 -2 0.674455
1.31446 -1.5 0.722631
1.22683 -1 0.674455
0.525784 1 0.289052
0.350523 1.5 0.192701
0.306707 2 0.168614
0.701045 2.6 0.385403
0.542896 -3 0.255468
0.723862 -2.7 0.340623
1.08579 -2.4 0.510935
1.26676 -2 0.596091
1.35724 -1.5 0.638669
1.26676 -1 0.596091
0.542896 1 0.255468
0.361931 1.5 0.170312
0.316689 2 0.149023
0.723862 2.6 0.340623
0.557866 -3 0.220875
0.743821 -2.7 0.2945
1.11573 -2.4 0.441749
1.30169 -2 0.515374
1.39466 -1.5 0.552187
1.30169 -1 0.515374
0.557866 1 0.220875
0.371911 1.5 0.14725
0.325422 2 0.128844
0.743821 2.6 0.2945
0.570634 -3 0.18541
0.760845 -2.7 0.247214
1.14127 -2.4 0.37082
1.33148 -2 0.432624
1.42658 -1.5 0.463526
1.33148 -1 0.432624
0.570634 1 0.18541
0.380423 1.5 0.123607
0.33287 2 0.108156
0.760845 2.6 0.247214
0.58115 -3 0.149214
0.774867 -2.7 0.198952
1.1623 -2.4 0.298428
1.35602 -2 0.348166
1.45287 -1.5 0.373035
1.35602 -1 0.348166
0.58115 1 0.149214
0.387433 1.5 0.099476
0.339004 2 0.0870415
0.774867 2.6 0.198952
0.589372 -3 0.112429
0.78583 -2.7 0.149905
1.17874 -2.4 0.224858
1.3752 -2 0.262334
1.47343 -1.5 0.281072
1.3752 -1 0.262334
0.589372 1 0.112429
0.392915 1.5 0.0749525
0.343801 2 0.0655835
0.78583 2.6 0.149905
0.595269 -3 0.0751999
0.793692 -2.7 0.100267
1.19054 -2.4 0.1504
1.38896 -2 0.175467
1.48817 -1.5 0.188
1.38896 -1 0.175467
0.595269 1 0.0751999
0.396846 1.5 0.0501333
0.34724 2 0.0438666
0.793692 2.6 0.100267
0.598816 -3 0.0376743
0.798421 -2.7 0.0502324
1.19763 -2.4 0.0753486
1.39724 -2 0.0879067
1.49704 -1.5 0.0941858
1.39724 -1 0.0879067
0.598816 1 0.0376743
0.399211 1.5 0.0251162
0.349309 2 0.0219767
0.798421 2.6 0.0502324
0 -3 0
0 2.6 0
3 10 11 1
3 1 0 10
3 11 12 2
3 2 1 11
3 12 13 3
3 3 2 12
3 13 14 4
3 4 3 13
3 14 15 5
3 5 4 14
3 15 16 6
3 6 5 15
3 16 17 7
3 7 6 16
3 17 18 8
3 8 7 17
3 18 19 9
3 9 8 18
3 20 21 11
3 11 10 20
3 21 22 12
3 12 11 21
3 22 23 13
3 13 12 22
3 23 24 14
3 14 13 23
3 24 25 15
3 15 14 24
3 25 26 16
3 16 15 25
3 26 27 17
3 17 16 26
3 27 28 18
3 18 17 27
3 28 29 19
3 19 18 28
3 30 31 21
3 21 20 30
3 31 32 22
3 22 21 31
3 32 33 23
3 23 22 32
3 33 34 24
3 24 23 33
3 34 35 25
3 25 24 34
3 35 36 26
3 26 25 35
3 36 37 27
3 27 26 36
3 37 38 28
3 28 27 37
3 38 39 29
3 29 28 38
3 40 41 31
3 31 30 40
3 41 42 32
3 32 31 41
3 42 43 33
3 33 32 42
3 43 44 34
3 34 33 43
3 44 45 35
3 35 34 44
3 45 46 36
3 36 35 45
3 46 47 37
3 37 36 46
3 47 48 38
3 38 37 47
3 48 49 39
3 39 38 48
3 50 51 41
3 41 40 50
3 51 52 42
3 42 41 51
3 52 53 43
3 43 42 52
3 53 54 44
3 44 43 53
3 54 55 45
3 45 44 54
3 55 56 46
3 46 45 55
3 56 57 47
3 47 46 56
3 57 58 48
3 48 47 57
3 58 59 49
3 49 48 58
3 60 61 51
3 51 50 60
3 61 62 52
3 52 51 61
3 62 63 53
3 53 52 62
3 63 64 54
3 54 53 63
3 64 65 55
3 55 54 64
3 65 66 56
3 56 55 65
3 66 67 57
3 57 56 66
3 67 68 58
3 58 57 67
3 68 69 59
3 59 58 68
3 70 71 61
3 61 60 70
3 71 72 62
3 62 61 71
3 72 73 63
3 63 62 72
3 73 74 64
3 64 63 73
3 74 75 65
3 65 64 74
3 75 76 66
3 66 65 75
3 76 77 67
3 67 66 76
3 77 78 68
3 68 67 77
3 78 79 69
3 69 68 78
3 80 81 71
3 71 70 80
3 81 82 72
3 72 71 81
3 82 83 73
3 73 72 82
3 83 84 74
3 74 73 83
3 84 85 75
3 75 74 84
3 85 86 76
3 76 75 85
3 86 87 77
3 77 76 86
3 87 88 78
3 78 77 87
3 88 89 79
3 79 78 88
3 90 91 81
3 81 80 90
3 91 92 82
3 82 81 91
3 92 93 83
3 83 82 92
3 93 94 84
3 84 83 93
3 94 95 85
3 85 84 94
3 95 96 86
3 86 85 95
3 96 97 87
3 87 86 96
3 97 98 88
3 88 87 97
3 98 99 89
3 89 88 98
3 100 101 91
3 91 90 100
3 101 102 92
3 92 91 101
3 102 103 93
3 93 92 102
3 103 104 94
3 94 93 103
3 104 105 95
3 95 94 104
3 105 106 96
3 96 95 105
3 106 107 97
3 97 96 106
3 107 108 98
3 98 97 107
3 108 109 99
3 99 98 108
3 110 111 101
3 101 100 110
3 111 112 102
3 102 101 111
3 112 113 103
3 103 102 112
3 113 114 104
3 104 103 113
3 114 115 105
3 105 104 114
3 115 116 106
3 106 105 115
3 116 117 107
3 107 106 116
3 117 118 108
3 108 107 117
3 118 119 109
3 109 108 118
3 120 121 111
3 111 110 120
3 121 122 112
3 112 111 121
3 122 123 113
3 113 112 122
3 123 124 114
3 114 113 123
3 124 125 115
3 115 114 124
3 125 126 116
3 116 115 125
3 126 127 117
3 117 116 126
3 127 128 118
3 118 117 127
3 128 129 119
3 119 118 128
3 130 131 121
3 121 120 130
3 131 132 122
3 122 121 131
3 132 133 123
3 123 122 132
3 133 134 124
3 124 123 133
3 134 135 125
3 125 124 134
3 135 136 126
3 126 125 135
3 136 137 127
3 127 126 136
3 137 138 128
3 128 127 137
3 138 139 129
3 129 128 138
3 140 141 131
3 131 130 140
3 141 142 132
3 132 131 141
3 142 143 133
3 133 132 142
3 143 144 134
3 134 133 143
3 144 145 135
3 135 134 144
3 145 146 136
3 136 135 145
3 146 147 137
3 137 136 146
3 147 148 138
3 138 137 147
3 148 149 139
3 139 138 148
3 150 151 141
3 141 140 150
3 151 152 142
3 142 141 151
3 152 153 143
3 143 142 152
3 153 154 144
3 144 143 153
3 154 155 145
3 145 144 154
3 155 156 146
3 146 145 155
3 156 157 147
3 147 146 156
3 157 158 148
3 148 147 157
3 158 159 149
3 149 148 158
3 160 161 151
3 151 150 160
3 161 162 152
3 152 151 161
3 162 163 153
3 153 152 162
3 163 164 154
3 154 153 163
3 164 165 155
3 155 154 164
3 165 166 156
3 156 155 165
3 166 167 157
3 157 156 166
3 167 168 158
3 158 157 167
3 168 169 159
3 159 158 168
3 170 171 161
3 161 160 170
3 171 172 162
3 162 161 171
3 172 173 163
3 163 162 172
3 173 174 164
3 164 163 173
3 174 175 165
3 165 164 174
3 175 176 166
3 166 165 175
3 176 177 167
3 167 166 176
3 177 178 168
3 168 167 177
3 178 179 169
3 169 168 178
3 180 181 171
3 171 170 180
3 181 182 172
3 172 171 181
3 182 183 173
3 173 172 182
3 183 184 174
3 174 173 183
3 184 185 175
3 175 174 184
3 185 186 176
3 176 175 185
3 186 187 177
3 177 176 186
3 187 188 178
3 178 177 187
3 188 189 179
3 179 178 188
3 190 191 181
3 181 180 190
3 191 192 182
3 182 181 191
3 192 193 183
3 183 182 192
3 193 194 184
3 184 183 193
3 194 195 185
3 185 184 194
3 195 196 186
3 186 185 195
3 196 197 187
3 187 186 196
3 197 198 188
3 188 187 197
3 198 199 189
3 189 188 198
3 200 201 191
3 191 190 200
3 201 202 192
3 192 191 201
3 202 203 193
3 193 192 202
3 203 204 194
3 194 193 203
3 204 205 195
3 195 194 204
3 205 206 196
3 196 195 205
3 206 207 197
3 197 196 206
3 207 208 198
3 198 197 207
3 208 209 199
3 199 198 208
3 210 211 201
3 201 200 210
3 211 212 202
3 202 201 211
3 212 213 203
3 203 202 212
3 213 214 204
3 204 203 213
3 214 215 205
3 205 204 214
3 215 216 206
3 206 205 215
3 216 217 207
3 207 206 216
3 217 218 208
3 208 207 217
3 218 219 209
3 209 208 218
3 220 221 211
3 211 210 220
3 221 222 212
3 212 211 221
3 222 223 213
3 213 212 222
3 223 224 214
3 214 213 223
3 224 225 215
3 215 214 224
3 225 226 216
3 216 215 225
3 226 227 217
3 217 216 226
3 227 228 218
3 218 217 227
3 228 229 219
3 219 218 228
3 230 231 221
3 221 220 230
3 231 232 222
3 222 221 231
3 232 233 223
3 223 222 232
3 233 234 224
3 224 223 233
3 234 235 225
3 225 224 234
3 235 236 226
3 226 225 235
3 236 237 227
3 227 226 236
3 237 238 228
3 228 227 237
3 238 239 229
3 229 228 238
3 240 241 231
3 231 230 240
3 241 242 232
3 232 231 241
3 242 243 233
3 233 232 242
3 243 244 234
3 234 233 243
3 244 245 235
3 235 234 244
3 245 246 236
3 236 235 245
3 246 247 237
3 237 236 246
3 247 248 238
3 238 237 247
3 248 249 239
3 239 238 248
3 250 251 241
3 241 240 250
3 251 252 242
3 242 241 251
3 252 253 243
3 243 242 252
3 253 254 244
3 244 243 253
3 254 255 245
3 245 244 254
3 255 256 246
3 246 245 255
3 256 257 247
3 247 246 256
3 257 258 248
3 248 247 257
3 258 259 249
3 249 248 258
3 260 261 251
3 251 250 260
3 261 262 252
3 252 251 261
3 262 263 253
3 253 252 262
3 263 264 254
3 254 253 263
3 264 265 255
3 255 254 264
3 265 266 256
3 256 255 265
3 266 267 257
3 257 256 266
3 267 268 258
3 258 257 267
3 268 269 259
3 259 258 268
3 270 271 261
3 261 260 270
3 271 272 262
3 262 261 271
3 272 273 263
3 263 262 272
3 273 274 264
3 264 263 273
3 274 275 265
3 265 264 274
3 275 276 266
3 266 265 275
3 276 277 267
3 267 266 276
3 277 278 268
3 268 267 277
3 278 279 269
3 269 268 278
3 280 281 271
3 271 270 280
3 281 282 272
3 272 271 281
3 282 283 273
3 273 272 282
3 283 284 274
3 274 273 283
3 284 285 275
3 275 274 284
3 285 286 276
3 276 275 285
3 286 287 277
3 277 276 286
3 287 288 278
3 278 277 287
3 288 289 279
3 279 278 288
3 290 291 281
3 281 280 290
3 291 292 282
3 282 281 291
3 292 293 283
3 283 282 292
3 293 294 284
3 284 283 293
3 294 295 285
3 285 284 294
3 295 296 286
3 286 285 295
3 296 297 287
3 287 286 296
3 297 298 288
3 288 287 297
3 298 299 289
3 289 288 298
3 300 301 291
3 291 290 300
3 301 302 292
3 292 291 301
3 302 303 293
3 293 292 302
3 303 304 294
3 294 293 303
3 304 305 295
3 295 294 304
3 305 306 296
3 296 295 305
3 306 307 297
3 297 296 306
3 307 308 298
3 298 297 307
3 308 309 299
3 299 298 308
3 310 311 301
3 301 300 310
3 311 312 302
3 302 301 311
3 312 313 303
3 303 302 312
3 313 314 304
3 304 303 313
3 314 315 305
3 305 304 314
3 315 316 306
3 306 305 315
3 316 317 307
3 307 306 316
3 317 318 308
3 308 307 317
3 318 319 309
3 309 308 318
3 320 321 311
3 311 310 320
3 321 322 312
3 312 311 321
3 322 323 313
3 313 312 322
3 323 324 314
3 314 313 323
3 324 325 315
3 315 314 324
3 325 326 316
3 316 315 325
3 326 327 317
3 317 316 326
3 327 328 318
3 318 317 327
3 328 329 319
3 319 318 328
3 330 331 321
3 321 320 330
3 331 332 322
3 322 321 331
3 332 333 323
3 323 322 332
3 333 334 324
3 324 323 333
3 334 335 325
3 325 324 334
3 335 336 326
3 326 325 335
3 336 337 327
3 327 326 336
3 337 338 328
3 328 327 337
3 338 339 329
3 329 328 338
3 340 341 331
3 331 330 340
3 341 342 332
3 332 331 341
3 342 343 333
3 333 332 342
3 343 344 334
3 334 333 343
3 344 345 335
3 335 334 344
3 345 346 336
3 336 335 345
3 346 347 337
3 337 336 346
3 347 348 338
3 338 337 347
3 348 349 339
3 339 338 348
3 350 351 341
3 341 340 350
3 351 352 342
3 342 341 351
3 352 353 343
3 343 342 352
3 353 354 344
3 344 343 353
3 354 355 345
3 345 344 354
3 355 356 346
3 346 345 355
3 356 357 347
3 347 346 356
3 357 358 348
3 348 347 357
3 358 359 349
3 349 348 358
3 360 361 351
3 351 350 360
3 361 362 352
3 352 351 361
3 362 363 353
3 353 352 362
3 363 364 354
3 354 353 363
3 364 365 355
3 355 354 364
3 365 366 356
3 356 355 365
3 366 367 357
3 357 356 366
3 367 368 358
3 358 357 367
3 368 369 359
3 359 358 368
3 370 371 361
3 361 360 370
3 371 372 362
3 362 361 371
3 372 373 363
3 363 362 372
3 373 374 364
3 364 363 373
3 374 375 365
3 365 364 374
3 375 376 366
3 366 365 375
3 376 377 367
3 367 366 376
3 377 378 368
3 368 367 377
3 378 379 369
3 369 368 378
3 380 381 371
3 371 370 380
3 381 382 372
3 372 371 381
3 382 383 373
3 373 372 382
3 383 384 374
3 374 373 383
3 384 385 375
3 375 374 384
3 385 386 376
3 376 375 385
3 386 387 377
3 377 376 386
3 387 388 378
3 378 377 387
3 388 389 379
3 379 378 388
3 390 391 381
3 381 380 390
3 391 392 382
3 382 381 391
3 392 393 383
3 383 382 392
3 393 394 384
3 384 383 393
3 394 395 385
3 385 384 394
3 395 396 386
3 386 385 395
3 396 397 387
3 387 386 396
3 397 398 388
3 388 387 397
3 398 399 389
3 389 388 398
3 400 401 391
3 391 390 400
3 401 402 392
3 392 391 401
3 402 403 393
3 393 392 402
3 403 404 394
3 394 393 403
3 404 405 395
3 395 394 404
3 405 406 396
3 396 395 405
3 406 407 397
3 397 396 406
3 407 408 398
3 398 397 407
3 408 409 399
3 399 398 408
3 410 411 401
3 401 400 410
3 411 412 402
3 402 401 411
3 412 413 403
3 403 402 412
3 413 414 404
3 404 403 413
3 414 415 405
3 405 404 414
3 415 416 406
3 406 405 415
3 416 417 407
3 407 406 416
3 417 418 408
3 408 407 417
3 418 419 409
3 409 408 418
3 420 421 411
3 411 410 420
3 421 422 412
3 412 411 421
3 422 423 413
3 413 412 422
3 423 424 414
3 414 413 423
3 424 425 415
3 415 414 424
3 425 426 416
3 416 415 425
3 426 427 417
3 417 416 426
3 427 428 418
3 418 417 427
3 428 429 419
3 419 418 428
3 430 431 421
3 421 420 430
3 431 432 422
3 422 421 431
3 432 433 423
3 423 422 432
3 433 434 424
3 424 423 433
3 434 435 425
3 425 424 434
3 435 436 426
3 426 425 435
3 436 437 427
3 427 426 436
3 437 438 428
3 428 427 437
3 438 439 429
3 429 428 438
3 440 441 431
3 431 430 440
3 441 442 432
3 432 431 441
3 442 443 433
3 433 432 442
3 443 444 434
3 434 433 443
3 444 445 435
3 435 434 444
3 445 446 436
3 436 435 445
3 446 447 437
3 437 436 446
3 447 448 438
3 438 437 447
3 448 449 439
3 439 438 448
3 450 451 441
3 441 440 450
3 451 452 442
3 442 441 451
3 452 453 443
3 443 442 452
3 453 454 444
3 444 443 453
3 454 455 445
3 445 444 454
3 455 456 446
3 446 445 455
3 456 457 447
3 447 446 456
3 457 458 448
3 448 447 457
3 458 459 449
3 449 448 458
3 460 461 451
3 451 450 460
3 461 462 452
3 452 451 461
3 462 463 453
3 453 452 462
3 463 464 454
3 454 453 463
3 464 465 455
3 455 454 464
3 465 466 456
3 456 455 465
3 466 467 457
3 457 456 466
3 467 468 458
3 458 457 467
3 468 469 459
3 459 458 468
3 470 471 461
3 461 460 470
3 471 472 462
3 462 461 471
3 472 473 463
3 463 462 472
3 473 474 464
3 464 463 473
3 474 475 465
3 465 464 474
3 475 476 466
3 466 465 475
3 476 477 467
3 467 466 476
3 477 478 468
3 468 467 477
3 478 479 469
3 469 468 478
3 480 481 471
3 471 470 480
3 481 482 472
3 472 471 481
3 482 483 473
3 473 472 482
3 483 484 474
3 474 473 483
3 484 485 475
3 475 474 484
3 485 486 476
3 476 475 485
3 486 487 477
3 477 476 486
3 487 488 478
3 478 477 487
3 488 489 479
3 479 478 488
3 490 491 481
3 481 480 490
3 491 492 482
3 482 481 491
3 492 493 483
3 483 482 492
3 493 494 484
3 484 483 493
3 494 495 485
3 485 484 494
3 495 496 486
3 486 485 495
3 496 497 487
3 487 486 496
3 497 498 488
3 488 487 497
3 498 499 489
3 489 488 498
3 500 501 491
3 491 490 500
3 501 502 492
3 492 491 501
3 502 503 493
3 493 492 502
3 503 504 494
3 494 493 503
3 504 505 495
3 495 494 504
3 505 506 496
3 496 495 505
3 506 507 497
3 497 496 506
3 507 508 498
3 498 497 507
3 508 509 499
3 499 498 508
3 510 511 501
3 501 500 510
3 511 512 502
3 502 501 511
3 512 513 503
3 503 502 512
3 513 514 504
3 504 503 513
3 514 515 505
3 505 504 514
3 515 516 506
3 506 505 515
3 516 517 507
3 507 506 516
3 517 518 508
3 508 507 517
3 518 519 509
3 509 508 518
3 520 521 511
3 511 510 520
3 521 522 512
3 512 511 521
3 522 523 513
3 513 512 522
3 523 524 514
3 514 513 523
3 524 525 515
3 515 514 524
3 525 526 516
3 516 515 525
3 526 527 517
3 517 516 526
3 527 528 518
3 518 517 527
3 528 529 519
3 519 518 528
3 530 531 521
3 521 520 530
3 531 532 522
3 522 521 531
3 532 533 523
3 523 522 532
3 533 534 524
3 524 523 533
3 534 535 525
3 525 524 534
3 535 536 526
3 526 525 535
3 536 537 527
3 527 526 536
3 537 538 528
3 528 527 537
3 538 539 529
3 529 528 538
3 540 541 531
3 531 530 540
3 541 542 532
3 532 531 541
3 542 543 533
3 533 532 542
3 543 544 534
3 534 533 543
3 544 545 535
3 535 534 544
3 545 546 536
3 536 535 545
3 546 547 537
3 537 536 546
3 547 548 538
3 538 537 547
3 548 549 539
3 539 538 548
3 550 551 541
3 541 540 550
3 551 552 542
3 542 541 551
3 552 553 543
3 543 542 552
3 553 554 544
3 544 543 553
3 554 555 545
3 545 544 554
3 555 556 546
3 546 545 555
3 556 557 547
3 547 546 556
3 557 558 548
3 548 547 557
3 558 559 549
3 549 548 558
3 560 561 551
3 551 550 560
3 561 562 552
3 552 551 561
3 562 563 553
3 553 552 562
3 563 564 554
3 554 553 563
3 564 565 555
3 555 554 564
3 565 566 556
3 556 555 565
3 566 567 557
3 557 556 566
3 567 568 558
3 558 557 567
3 568 569 559
3 559 558 568
3 570 571 561
3 561 560 570
3 571 572 562
3 562 561 571
3 572 573 563
3 563 562 572
3 573 574 564
3 564 563 573
3 574 575 565
3 565 564 574
3 575 576 566
3 566 565 575
3 576 577 567
3 567 566 576
3 577 578 568
3 568 567 577
3 578 579 569
3 569 568 578
3 580 581 571
3 571 570 580
3 581 582 572
3 572 571 581
3 582 583 573
3 573 572 582
3 583 584 574
3 574 573 583
3 584 585 575
3 575 574 584
3 585 586 576
3 576 575 585
3 586 587 577
3 577 576 586
3 587 588 578
3 578 577 587
3 588 589 579
3 579 578 588
3 590 591 581
3 581 580 590
3 591 592 582
3 582 581 591
3 592 593 583
3 583 582 592
3 593 594 584
3 584 583 593
3 594 595 585
3 585 584 594
3 595 596 586
3 586 585 595
3 596 597 587
3 587 586 596
3 597 598 588
3 588 587 597
3 598 599 589
3 589 588 598
3 600 601 591
3 591 590 600
3 601 602 592
3 592 591 601
3 602 603 593
3 593 592 602
3 603 604 594
3 594 593 603
3 604 605 595
3 595 594 604
3 605 606 596
3 596 595 605
3 606 607 597
3 597 596 606
3 607 608 598
3 598 597 607
3 608 609 599
3 599 598 608
3 610 611 601
3 601 600 610
3 611 612 602
3 602 601 611
3 612 613 603
3 603 602 612
3 613 614 604
3 604 603 613
3 614 615 605
3 605 604 614
3 615 616 606
3 606 605 615
3 616 617 607
3 607 606 616
3 617 618 608
3 608 607 617
3 618 619 609
3 609 608 618
3 620 621 611
3 611 610 620
3 621 622 612
3 612 611 621
3 622 623 613
3 613 612 622
3 623 624 614
3 614 613 623
3 624 625 615
3 615 614 624
3 625 626 616
3 616 615 625
3 626 627 617
3 617 616 626
3 627 628 618
3 618 617 627
3 628 629 619
3 619 618 628
3 630 631 621
3 621 620 630
3 631 632 622
3 622 621 631
3 632 633 623
3 623 622 632
3 633 634 624
3 624 623 633
3 634 635 625
3 625 624 634
3 635 636 626
3 626 625 635
3 636 637 627
3 627 626 636
3 637 638 628
3 628 627 637
3 638 639 629
3 629 628 638
3 640 641 631
3 631 630 640
3 641 642 632
3 632 631 641
3 642 643 633
3 633 632 642
3 643 644 634
3 634 633 643
3 644 645 635
3 635 634 644
3 645 646 636
3 636 635 645
3 646 647 637
3 637 636 646
3 647 648 638
3 638 637 647
3 648 649 639
3 639 638 648
3 650 651 641
3 641 640 650
3 651 652 642
3 642 641 651
3 652 653 643
3 643 642 652
3 653 654 644
3 644 643 653
3 654 655 645
3 645 644 654
3 655 656 646
3 646 645 655
3 656 657 647
3 647 646 656
3 657 658 648
3 648 647 657
3 658 659 649
3 649 648 658
3 660 661 651
3 651 650 660
3 661 662 652
3 652 651 661
3 662 663 653
3 653 652 662
3 663 664 654
3 654 653 663
3 664 665 655
3 655 654 664
3 665 666 656
3 656 655 665
3 666 667 657
3 657 656 666
3 667 668 658
3 658 657 667
3 668 669 659
3 659 658 668
3 670 671 661
3 661 660 670
3 671 672 662
3 662 661 671
3 672 673 663
3 663 662 672
3 673 674 664
3 664 663 673
3 674 675 665
3 665 664 674
3 675 676 666
3 666 665 675
3 676 677 667
3 667 666 676
3 677 678 668
3 668 667 677
3 678 679 669
3 669 668 678
3 680 681 671
3 671 670 680
3 681 682 672
3 672 671 681
3 682 683 673
3 673 672 682
3 683 684 674
3 674 673 683
3 684 685 675
3 675 674 684
3 685 686 676
3 676 675 685
3 686 687 677
3 677 676 686
3 687 688 678
3 678 677 687
3 688 689 679
3 679 678 688
3 690 691 681
3 681 680 690
3 691 692 682
3 682 681 691
3 692 693 683
3 683 682 692
3 693 694 684
3 684 683 693
3 694 695 685
3 685 684 694
3 695 696 686
3 686 685 695
3 696 697 687
3 687 686 696
3 697 698 688
3 688 687 697
3 698 699 689
3 689 688 698
3 700 701 691
3 691 690 700
3 701 702 692
3 692 691 701
3 702 703 693
3 693 692 702
3 703 704 694
3 694 693 703
3 704 705 695
3 695 694 704
3 705 706 696
3 696 695 705
3 706 707 697
3 697 696 706
3 707 708 698
3 698 697 707
3 708 709 699
3 699 698 708
3 710 711 701
3 701 700 710
3 711 712 702
3 702 701 711
3 712 713 703
3 703 702 712
3 713 714 704
3 704 703 713
3 714 715 705
3 705 704 714
3 715 716 706
3 706 705 715
3 716 717 707
3 707 706 716
3 717 718 708
3 708 707 717
3 718 719 709
3 709 708 718
3 720 721 711
3 711 710 720
3 721 722 712
3 712 711 721
3 722 723 713
3 713 712 722
3 723 724 714
3 714 713 723
3 724 725 715
3 715 714 724
3 725 726 716
3 716 715 725
3 726 727 717
3 717 716 726
3 727 728 718
3 718 717 727
3 728 729 719
3 719 718 728
3 730 731 721
3 721 720 730
3 731 732 722
3 722 721 731
3 732 733 723
3 723 722 732
3 733 734 724
3 724 723 733
3 734 735 725
3 725 724 734
3 735 736 726
3 726 725 735
3 736 737 727
3 727 726 736
3 737 738 728
3 728 727 737
3 738 739 729
3 729 728 738
3 740 741 731
3 731 730 740
3 741 742 732
3 732 731 741
3 742 743 733
3 733 732 742
3 743 744 734
3 734 733 743
3 744 745 735
3 735 734 744
3 745 746 736
3 736 735 745
3 746 747 737
3 737 736 746
3 747 748 738
3 738 737 747
3 748 749 739
3 739 738 748
3 750 751 741
3 741 740 750
3 751 752 742
3 742 741 751
3 752 753 743
3 743 742 752
3 753 754 744
3 744 743 753
3 754 755 745
3 745 744 754
3 755 756 746
3 746 745 755
3 756 757 747
3 747 746 756
3 757 758 748
3 748 747 757
3 758 759 749
3 749 748 758
3 760 761 751
3 751 750 760
3 761 762 752
3 752 751 761
3 762 763 753
3 753 752 762
3 763 764 754
3 754 753 763
3 764 765 755
3 755 754 764
3 765 766 756
3 756 755 765
3 766 767 757
3 757 756 766
3 767 768 758
3 758 757 767
3 768 769 759
3 759 758 768
3 770 771 761
3 761 760 770
3 771 772 762
3 762 761 771
3 772 773 763
3 763 762 772
3 773 774 764
3 764 763 773
3 774 775 765
3 765 764 774
3 775 776 766
3 766 765 775
3 776 777 767
3 767 766 776
3 777 778 768
3 768 767 777
3 778 779 769
3 769 768 778
3 780 781 771
3 771 770 780
3 781 782 772
3 772 771 781
3 782 783 773
3 773 772 782
3 783 784 774
3 774 773 783
3 784 785 775
3 775 774 784
3 785 786 776
3 776 775 785
3 786 787 777
3 777 776 786
3 787 788 778
3 778 777 787
3 788 789 779
3 779 778 788
3 790 791 781
3 781 780 790
3 791 792 782
3 782 781 791
3 792 793 783
3 783 782 792
3 793 794 784
3 784 783 793
3 794 795 785
3 785 784 794
3 795 796 786
3 786 785 795
3 796 797 787
3 787 786 796
3 797 798 788
3 788 787 797
3 798 799 789
3 789 788 798
3 800 801 791
3 791 790 800
3 801 802 792
3 792 791 801
3 802 803 793
3 793 792 802
3 803 804 794
3 794 793 803
3 804 805 795
3 795 794 804
3 805 806 796
3 796 795 805
3 806 807 797
3 797 796 806
3 807 808 798
3 798 797 807
3 808 809 799
3 799 798 808
3 810 811 801
3 801 800 810
3 811 812 802
3 802 801 811
3 812 813 803
3 803 802 812
3 813 814 804
3 804 803 813
3 814 815 805
3 805 804 814
3 815 816 806
3 806 805 815
3 816 817 807
3 807 806 816
3 817 818 808
3 808 807 817
3 818 819 809
3 809 808 818
3 820 821 811
3 811 810 820
3 821 822 812
3 812 811 821
3 822 823 813
3 813 812 822
3 823 824 814
3 814 813 823
3 824 825 815
3 815 814 824
3 825 826 816
3 816 815 825
3 826 827 817
3 817 816 826
3 827 828 818
3 818 817 827
3 828 829 819
3 819 818 828
3 830 831 821
3 821 820 830
3 831 832 822
3 822 821 831
3 832 833 823
3 823 822 832
3 833 834 824
3 824 823 833
3 834 835 825
3 825 824 834
3 835 836 826
3 826 825 835
3 836 837 827
3 827 826 836
3 837 838 828
3 828 827 837
3 838 839 829
3 829 828 838
3 840 841 831
3 831 830 840
3 841 842 832
3 832 831 841
3 842 843 833
3 833 832 842
3 843 844 834
3 834 833 843
3 844 845 835
3 835 834 844
3 845 846 836
3 836 835 845
3 846 847 837
3 837 836 846
3 847 848 838
3 838 837 847
3 848 849 839
3 839 838 848
3 850 851 841
3 841 840 850
3 851 852 842
3 842 841 851
3 852 853 843
3 843 842 852
3 853 854 844
3 844 843 853
3 854 855 845
3 845 844 854
3 855 856 846
3 846 845 855
3 856 857 847
3 847 846 856
3 857 858 848
3 848 847 857
3 858 859 849
3 849 848 858
3 860 861 851
3 851 850 860
3 861 862 852
3 852 851 861
3 862 863 853
3 853 852 862
3 863 864 854
3 854 853 863
3 864 865 855
3 855 854 864
3 865 866 856
3 856 855 865
3 866 867 857
3 857 856 866
3 867 868 858
3 858 857 867
3 868 869 859
3 859 858 868
3 870 871 861
3 861 860 870
3 871 872 862
3 862 861 871
3 872 873 863
3 863 862 872
3 873 874 864
3 864 863 873
3 874 875 865
3 865 864 874
3 875 876 866
3 866 865 875
3 876 877 867
3 867 866 876
3 877 878 868
3 868 867 877
3 878 879 869
3 869 868 878
3 880 881 871
3 871 870 880
3 881 882 872
3 872 871 881
3 882 883 873
3 873 872 882
3 883 884 874
3 874 873 883
3 884 885 875
3 875 874 884
3 885 886 876
3 876 875 885
3 886 887 877
3 877 876 886
3 887 888 878
3 878 877 887
3 888 889 879
3 879 878 888
3 890 891 881
3 881 880 890
3 891 892 882
3 882 881 891
3 892 893 883
3 883 882 892
3 893 894 884
3 884 883 893
3 894 895 885
3 885 884 894
3 895 896 886
3 886 885 895
3 896 897 887
3 887 886 896
3 897 898 888
3 888 887 897
3 898 899 889
3 889 888 898
3 900 901 891
3 891 890 900
3 901 902 892
3 892 891 901
3 902 903 893
3 893 892 902
3 903 904 894
3 894 893 903
3 904 905 895
3 895 894 904
3 905 906 896
3 896 895 905
3 906 907 897
3 897 896 906
3 907 908 898
3 898 897 907
3 908 909 899
3 899 898 908
3 910 911 901
3 901 900 910
3 911 912 902
3 902 901 911
3 912 913 903
3 903 902 912
3 913 914 904
3 904 903 913
3 914 915 905
3 905 904 914
3 915 916 906
3 906 905 915
3 916 917 907
3 907 906 916
3 917 918 908
3 908 907 917
3 918 919 909
3 909 908 918
3 920 921 911
3 911 910 920
3 921 922 912
3 912 911 921
3 922 923 913
3 913 912 922
3 923 924 914
3 914 913 923
3 924 925 915
3 915 914 924
3 925 926 916
3 916 915 925
3 926 927 917
3 917 916 926
3 927 928 918
3 918 917 927
3 928 929 919
3 919 918 928
3 930 931 921
3 921 920 930
3 931 932 922
3 922 921 931
3 932 933 923
3 923 922 932
3 933 934 924
3 924 923 933
3 934 935 925
3 925 924 934
3 935 936 926
3 926 925 935
3 936 937 927
3 927 926 936
3 937 938 928
3 928 927 937
3 938 939 929
3 929 928 938
3 940 941 931
3 931 930 940
3 941 942 932
3 932 931 941
3 942 943 933
3 933 932 942
3 943 944 934
3 934 933 943
3 944 945 935
3 935 934 944
3 945 946 936
3 936 935 945
3 946 947 937
3 937 936 946
3 947 948 938
3 938 937 947
3 948 949 939
3 939 938 948
3 950 951 941
3 941 940 950
3 951 952 942
3 942 941 951
3 952 953 943
3 943 942 952
3 953 954 944
3 944 943 953
3 954 955 945
3 945 944 954
3 955 956 946
3 946 945 955
3 956 957 947
3 947 946 956
3 957 958 948
3 948 947 957
3 958 959 949
3 949 948 958
3 960 961 951
3 951 950 960
3 961 962 952
3 952 951 961
3 962 963 953
3 953 952 962
3 963 964 954
3 954 953 963
3 964 965 955
3 955 954 964
3 965 966 956
3 956 955 965
3 966 967 957
3 957 956 966
3 967 968 958
3 958 957 967
3 968 969 959
3 959 958 968
3 970 971 961
3 961 960 970
3 971 972 962
3 962 961 971
3 972 973 963
3 963 962 972
3 973 974 964
3 964 963 973
3 974 975 965
3 965 964 974
3 975 976 966
3 966 965 975
3 976 977 967
3 967 966 976
3 977 978 968
3 968 967 977
3 978 979 969
3 969 968 978
3 980 981 971
3 971 970 980
3 981 982 972
3 972 971 981
3 982 983 973
3 973 972 982
3 983 984 974
3 974 973 983
3 984 985 975
3 975 974 984
3 985 986 976
3 976 975 985
3 986 987 977
3 977 976 986
3 987 988 978
3 978 977 987
3 988 989 979
3 979 978 988
3 990 991 981
3 981 980 990
3 991 992 982
3 982 981 991
3 992 993 983
3 983 982 992
3 993 994 984
3 984 983 993
3 994 995 985
3 985 984 994
3 995 996 986
3 986 985 995
3 996 997 987
3 987 986 996
3 997 998 988
3 988 987 997
3 998 999 989
3 989 988 998
3 0 1 991
3 991 990 0
3 1 2 992
3 992 991 1
3 2 3 993
3 993 992 2
3 3 4 994
3 994 993 3
3 4 5 995
3 995 994 4
3 5 6 996
3 996 995 5
3 6 7 997
3 997 996 6
3 7 8 998
3 998 997 7
3 8 9 999
3 999 998 8
3 0 1000 10
3 10 1000 20
3 20 1000 30
3 30 1000 40
3 40 1000 50
3 50 1000 60
3 60 1000 70
3 70 1000 80
3 80 1000 90
3 90 1000 100
3 100 1000 110
3 110 1000 120
3 120 1000 130
3 130 1000 140
3 140 1000 150
3 150 1000 160
3 160 1000 170
3 170 1000 180
3 180 1000 190
3 190 1000 200
3 200 1000 210
3 210 1000 220
3 220 1000 230
3 230 1000 240
3 240 1000 250
3 250 1000 260
3 260 1000 270
3 270 1000 280
3 280 1000 290
3 290 1000 300
3 300 1000 310
3 310 1000 320
3 320 1000 330
3 330 1000 340
3 340 1000 350
3 350 1000 360
3 360 1000 370
3 370 1000 380
3 380 1000 390
3 390 1000 400
3 400 1000 410
3 410 1000 420
3 420 1000 430
3 430 1000 440
3 440 1000 450
3 450 1000 460
3 460 1000 470
3 470 1000 480
3 480 1000 490
3 490 1000 500
3 500 1000 510
3 510 1000 520
3 520 1000 530
3 530 1000 540
3 540 1000 550
3 550 1000 560
3 560 1000 570
3 570 1000 580
3 580 1000 590
3 590 1000 600
3 600 1000 610
3 610 1000 620
3 620 1000 630
3 630 1000 640
3 640 1000 650
3 650 1000 660
3 660 1000 670
3 670 1000 680
3 680 1000 690
3 690 1000 700
3 700 1000 710
3 710 1000 720
3 720 1000 730
3 730 1000 740
3 740 1000 750
3 750 1000 760
3 760 1000 770
3 770 1000 780
3 780 1000 790
3 790 1000 800
3 800 1000 810
3 810 1000 820
3 820 1000 830
3 830 1000 840
3 840 1000 850
3 850 1000 860
3 860 1000 870
3 870 1000 880
3 880 1000 890
3 890 1000 900
3 900 1000 910
3 910 1000 920
3 920 1000 930
3 930 1000 940
3 940 1000 950
3 950 1000 960
3 960 1000 970
3 970 1000 980
3 980 1000 990
3 990 1000 0
3 9 1001 19
3 19 1001 29
3 29 1001 39
3 39 1001 49
3 49 1001 59
3 59 1001 69
3 69 1001 79
3 79 1001 89
3 89 1001 99
3 99 1001 109
3 109 1001 119
3 119 1001 129
3 129 1001 139
3 139 1001 149
3 149 1001 159
3 159 1001 169
3 169 1001 179
3 179 1001 189
3 189 1001 199
3 199 1001 209
3 209 1001 219
3 219 1001 229
3 229 1001 239
3 239 1001 249
3 249 1001 259
3 259 1001 269
3 269 1001 279
3 279 1001 289
3 289 1001 299
3 299 1001 309
3 309 1001 319
3 319 1001 329
3 329 1001 339
3 339 1001 349
3 349 1001 359
3 359 1001 369
3 369 1001 379
3 379 1001 389
3 389 1001 399
3 399 1001 409
3 409 1001 419
3 419 1001 429
3 429 1001 439
3 439 1001 449
3 449 1001 459
3 459 1001 469
3 469 1001 479
3 479 1001 489
3 489 1001 499
3 499 1001 509
3 509 1001 519
3 519 1001 529
3 529 1001 539
3 539 1001 549
3 549 1001 559
3 559 1001 569
3 569 1001 579
3 579 1001 589
3 589 1001 599
3 599 1001 609
3 609 1001 619
3 619 1001 629
3 629 1001 639
3 639 1001 649
3 649 1001 659
3 659 1001 669
3 669 1001 679
3 679 1001 689
3 689 1001 699
3 699 1001 709
3 709 1001 719
3 719 1001 729
3 729 1001 739
3 739 1001 749
3 749 1001 759
3 759 1001 769
3 769 1001 779
3 779 1001 789
3 789 1001 799
3 799 1001 809
3 809 1001 819
3 819 1001 829
3 829 1001 839
3 839 1001 849
3 849 1001 859
3 859 1001 869
3 869 1001 879
3 879 1001 889
3 889 1001 899
3 899 1001 909
3 909 1001 919
3 919 1001 929
3 929 1001 939
3 939 1001 949
3 949 1001 959
3 959 1001 969
3 969 1001 979
3 979 1001 989
3 989 1001 999
3 999 1001 9
